<?xml version="1.0" encoding="utf-8" standalone="no"?>
<!DOCTYPE svg PUBLIC "-//W3C//DTD SVG 1.1//EN"
  "http://www.w3.org/Graphics/SVG/1.1/DTD/svg11.dtd">
<!-- Created with matplotlib (https://matplotlib.org/) -->
<svg height="396pt" version="1.1" viewBox="0 0 576 396" width="576pt" xmlns="http://www.w3.org/2000/svg" xmlns:xlink="http://www.w3.org/1999/xlink">
 <defs>
  <style type="text/css">
*{stroke-linecap:butt;stroke-linejoin:round;}
  </style>
 </defs>
 <g id="figure_1">
  <g id="patch_1">
   <path d="M 0 396 
L 576 396 
L 576 0 
L 0 0 
z
" style="fill:#ffffff;"/>
  </g>
  <g id="axes_1">
   <g id="patch_2">
    <path d="M 40.34 351.448 
L 565.2 351.448 
L 565.2 25.49625 
L 40.34 25.49625 
z
" style="fill:#eaeaf2;"/>
   </g>
   <g id="matplotlib.axis_1">
    <g id="xtick_1">
     <g id="line2d_1">
      <path clip-path="url(#p221931d06b)" d="M 64.197273 351.448 
L 64.197273 25.49625 
" style="fill:none;stroke:#ffffff;stroke-linecap:round;"/>
     </g>
     <g id="line2d_2"/>
     <g id="text_1">
      <!-- 0.0 -->
      <defs>
       <path d="M 4.15625 35.296875 
Q 4.15625 48 6.765625 55.734375 
Q 9.375 63.484375 14.515625 67.671875 
Q 19.671875 71.875 27.484375 71.875 
Q 33.25 71.875 37.59375 69.546875 
Q 41.9375 67.234375 44.765625 62.859375 
Q 47.609375 58.5 49.21875 52.21875 
Q 50.828125 45.953125 50.828125 35.296875 
Q 50.828125 22.703125 48.234375 14.96875 
Q 45.65625 7.234375 40.5 3 
Q 35.359375 -1.21875 27.484375 -1.21875 
Q 17.140625 -1.21875 11.234375 6.203125 
Q 4.15625 15.140625 4.15625 35.296875 
z
M 13.1875 35.296875 
Q 13.1875 17.671875 17.3125 11.828125 
Q 21.4375 6 27.484375 6 
Q 33.546875 6 37.671875 11.859375 
Q 41.796875 17.71875 41.796875 35.296875 
Q 41.796875 52.984375 37.671875 58.78125 
Q 33.546875 64.59375 27.390625 64.59375 
Q 21.34375 64.59375 17.71875 59.46875 
Q 13.1875 52.9375 13.1875 35.296875 
z
" id="ArialMT-48"/>
       <path d="M 9.078125 0 
L 9.078125 10.015625 
L 19.09375 10.015625 
L 19.09375 0 
z
" id="ArialMT-46"/>
      </defs>
      <g style="fill:#262626;" transform="translate(57.247273 365.605812)scale(0.1 -0.1)">
       <use xlink:href="#ArialMT-48"/>
       <use x="55.615234" xlink:href="#ArialMT-46"/>
       <use x="83.398438" xlink:href="#ArialMT-48"/>
      </g>
     </g>
    </g>
    <g id="xtick_2">
     <g id="line2d_3">
      <path clip-path="url(#p221931d06b)" d="M 159.626364 351.448 
L 159.626364 25.49625 
" style="fill:none;stroke:#ffffff;stroke-linecap:round;"/>
     </g>
     <g id="line2d_4"/>
     <g id="text_2">
      <!-- 0.2 -->
      <defs>
       <path d="M 50.34375 8.453125 
L 50.34375 0 
L 3.03125 0 
Q 2.9375 3.171875 4.046875 6.109375 
Q 5.859375 10.9375 9.828125 15.625 
Q 13.8125 20.3125 21.34375 26.46875 
Q 33.015625 36.03125 37.109375 41.625 
Q 41.21875 47.21875 41.21875 52.203125 
Q 41.21875 57.421875 37.46875 61 
Q 33.734375 64.59375 27.734375 64.59375 
Q 21.390625 64.59375 17.578125 60.78125 
Q 13.765625 56.984375 13.71875 50.25 
L 4.6875 51.171875 
Q 5.609375 61.28125 11.65625 66.578125 
Q 17.71875 71.875 27.9375 71.875 
Q 38.234375 71.875 44.234375 66.15625 
Q 50.25 60.453125 50.25 52 
Q 50.25 47.703125 48.484375 43.546875 
Q 46.734375 39.40625 42.65625 34.8125 
Q 38.578125 30.21875 29.109375 22.21875 
Q 21.1875 15.578125 18.9375 13.203125 
Q 16.703125 10.84375 15.234375 8.453125 
z
" id="ArialMT-50"/>
      </defs>
      <g style="fill:#262626;" transform="translate(152.676364 365.605812)scale(0.1 -0.1)">
       <use xlink:href="#ArialMT-48"/>
       <use x="55.615234" xlink:href="#ArialMT-46"/>
       <use x="83.398438" xlink:href="#ArialMT-50"/>
      </g>
     </g>
    </g>
    <g id="xtick_3">
     <g id="line2d_5">
      <path clip-path="url(#p221931d06b)" d="M 255.055455 351.448 
L 255.055455 25.49625 
" style="fill:none;stroke:#ffffff;stroke-linecap:round;"/>
     </g>
     <g id="line2d_6"/>
     <g id="text_3">
      <!-- 0.4 -->
      <defs>
       <path d="M 32.328125 0 
L 32.328125 17.140625 
L 1.265625 17.140625 
L 1.265625 25.203125 
L 33.9375 71.578125 
L 41.109375 71.578125 
L 41.109375 25.203125 
L 50.78125 25.203125 
L 50.78125 17.140625 
L 41.109375 17.140625 
L 41.109375 0 
z
M 32.328125 25.203125 
L 32.328125 57.46875 
L 9.90625 25.203125 
z
" id="ArialMT-52"/>
      </defs>
      <g style="fill:#262626;" transform="translate(248.105455 365.605812)scale(0.1 -0.1)">
       <use xlink:href="#ArialMT-48"/>
       <use x="55.615234" xlink:href="#ArialMT-46"/>
       <use x="83.398438" xlink:href="#ArialMT-52"/>
      </g>
     </g>
    </g>
    <g id="xtick_4">
     <g id="line2d_7">
      <path clip-path="url(#p221931d06b)" d="M 350.484545 351.448 
L 350.484545 25.49625 
" style="fill:none;stroke:#ffffff;stroke-linecap:round;"/>
     </g>
     <g id="line2d_8"/>
     <g id="text_4">
      <!-- 0.6 -->
      <defs>
       <path d="M 49.75 54.046875 
L 41.015625 53.375 
Q 39.84375 58.546875 37.703125 60.890625 
Q 34.125 64.65625 28.90625 64.65625 
Q 24.703125 64.65625 21.53125 62.3125 
Q 17.390625 59.28125 14.984375 53.46875 
Q 12.59375 47.65625 12.5 36.921875 
Q 15.671875 41.75 20.265625 44.09375 
Q 24.859375 46.4375 29.890625 46.4375 
Q 38.671875 46.4375 44.84375 39.96875 
Q 51.03125 33.5 51.03125 23.25 
Q 51.03125 16.5 48.125 10.71875 
Q 45.21875 4.9375 40.140625 1.859375 
Q 35.0625 -1.21875 28.609375 -1.21875 
Q 17.625 -1.21875 10.6875 6.859375 
Q 3.765625 14.9375 3.765625 33.5 
Q 3.765625 54.25 11.421875 63.671875 
Q 18.109375 71.875 29.4375 71.875 
Q 37.890625 71.875 43.28125 67.140625 
Q 48.6875 62.40625 49.75 54.046875 
z
M 13.875 23.1875 
Q 13.875 18.65625 15.796875 14.5 
Q 17.71875 10.359375 21.1875 8.171875 
Q 24.65625 6 28.46875 6 
Q 34.03125 6 38.03125 10.484375 
Q 42.046875 14.984375 42.046875 22.703125 
Q 42.046875 30.125 38.078125 34.390625 
Q 34.125 38.671875 28.125 38.671875 
Q 22.171875 38.671875 18.015625 34.390625 
Q 13.875 30.125 13.875 23.1875 
z
" id="ArialMT-54"/>
      </defs>
      <g style="fill:#262626;" transform="translate(343.534545 365.605812)scale(0.1 -0.1)">
       <use xlink:href="#ArialMT-48"/>
       <use x="55.615234" xlink:href="#ArialMT-46"/>
       <use x="83.398438" xlink:href="#ArialMT-54"/>
      </g>
     </g>
    </g>
    <g id="xtick_5">
     <g id="line2d_9">
      <path clip-path="url(#p221931d06b)" d="M 445.913636 351.448 
L 445.913636 25.49625 
" style="fill:none;stroke:#ffffff;stroke-linecap:round;"/>
     </g>
     <g id="line2d_10"/>
     <g id="text_5">
      <!-- 0.8 -->
      <defs>
       <path d="M 17.671875 38.8125 
Q 12.203125 40.828125 9.5625 44.53125 
Q 6.9375 48.25 6.9375 53.421875 
Q 6.9375 61.234375 12.546875 66.546875 
Q 18.171875 71.875 27.484375 71.875 
Q 36.859375 71.875 42.578125 66.421875 
Q 48.296875 60.984375 48.296875 53.171875 
Q 48.296875 48.1875 45.671875 44.5 
Q 43.0625 40.828125 37.75 38.8125 
Q 44.34375 36.671875 47.78125 31.875 
Q 51.21875 27.09375 51.21875 20.453125 
Q 51.21875 11.28125 44.71875 5.03125 
Q 38.234375 -1.21875 27.640625 -1.21875 
Q 17.046875 -1.21875 10.546875 5.046875 
Q 4.046875 11.328125 4.046875 20.703125 
Q 4.046875 27.6875 7.59375 32.390625 
Q 11.140625 37.109375 17.671875 38.8125 
z
M 15.921875 53.71875 
Q 15.921875 48.640625 19.1875 45.40625 
Q 22.46875 42.1875 27.6875 42.1875 
Q 32.765625 42.1875 36.015625 45.375 
Q 39.265625 48.578125 39.265625 53.21875 
Q 39.265625 58.0625 35.90625 61.359375 
Q 32.5625 64.65625 27.59375 64.65625 
Q 22.5625 64.65625 19.234375 61.421875 
Q 15.921875 58.203125 15.921875 53.71875 
z
M 13.09375 20.65625 
Q 13.09375 16.890625 14.875 13.375 
Q 16.65625 9.859375 20.171875 7.921875 
Q 23.6875 6 27.734375 6 
Q 34.03125 6 38.125 10.046875 
Q 42.234375 14.109375 42.234375 20.359375 
Q 42.234375 26.703125 38.015625 30.859375 
Q 33.796875 35.015625 27.4375 35.015625 
Q 21.234375 35.015625 17.15625 30.90625 
Q 13.09375 26.8125 13.09375 20.65625 
z
" id="ArialMT-56"/>
      </defs>
      <g style="fill:#262626;" transform="translate(438.963636 365.605812)scale(0.1 -0.1)">
       <use xlink:href="#ArialMT-48"/>
       <use x="55.615234" xlink:href="#ArialMT-46"/>
       <use x="83.398438" xlink:href="#ArialMT-56"/>
      </g>
     </g>
    </g>
    <g id="xtick_6">
     <g id="line2d_11">
      <path clip-path="url(#p221931d06b)" d="M 541.342727 351.448 
L 541.342727 25.49625 
" style="fill:none;stroke:#ffffff;stroke-linecap:round;"/>
     </g>
     <g id="line2d_12"/>
     <g id="text_6">
      <!-- 1.0 -->
      <defs>
       <path d="M 37.25 0 
L 28.46875 0 
L 28.46875 56 
Q 25.296875 52.984375 20.140625 49.953125 
Q 14.984375 46.921875 10.890625 45.40625 
L 10.890625 53.90625 
Q 18.265625 57.375 23.78125 62.296875 
Q 29.296875 67.234375 31.59375 71.875 
L 37.25 71.875 
z
" id="ArialMT-49"/>
      </defs>
      <g style="fill:#262626;" transform="translate(534.392727 365.605812)scale(0.1 -0.1)">
       <use xlink:href="#ArialMT-49"/>
       <use x="55.615234" xlink:href="#ArialMT-46"/>
       <use x="83.398438" xlink:href="#ArialMT-48"/>
      </g>
     </g>
    </g>
    <g id="text_7">
     <!-- $f'$ ($u/u_e$) -->
     <defs>
      <path d="M 47.796875 75.984375 
L 46.390625 68.5 
L 37.796875 68.5 
Q 32.90625 68.5 30.6875 66.578125 
Q 28.46875 64.65625 27.390625 59.515625 
L 26.421875 54.6875 
L 41.21875 54.6875 
L 39.890625 47.703125 
L 25.09375 47.703125 
L 15.828125 0 
L 6.78125 0 
L 16.109375 47.703125 
L 7.515625 47.703125 
L 8.796875 54.6875 
L 17.390625 54.6875 
L 18.109375 58.5 
Q 19.96875 68.171875 24.625 72.078125 
Q 29.296875 75.984375 39.3125 75.984375 
z
" id="DejaVuSans-Oblique-102"/>
      <path d="M 3.515625 5.421875 
Q 2.875 5.609375 2.875 6.390625 
L 15.09375 51.8125 
Q 15.671875 53.65625 17.078125 54.78125 
Q 18.5 55.90625 20.3125 55.90625 
Q 22.65625 55.90625 24.4375 54.359375 
Q 26.21875 52.828125 26.21875 50.484375 
Q 26.21875 49.46875 25.6875 48.1875 
L 7.625 4.984375 
Q 7.28125 4.296875 6.6875 4.296875 
Q 6.15625 4.296875 5 4.78125 
Q 3.859375 5.28125 3.515625 5.421875 
z
" id="Cmsy10-48"/>
      <path id="ArialMT-32"/>
      <path d="M 23.390625 -21.046875 
Q 16.109375 -11.859375 11.078125 0.4375 
Q 6.0625 12.75 6.0625 25.921875 
Q 6.0625 37.546875 9.8125 48.1875 
Q 14.203125 60.546875 23.390625 72.796875 
L 29.6875 72.796875 
Q 23.78125 62.640625 21.875 58.296875 
Q 18.890625 51.5625 17.1875 44.234375 
Q 15.09375 35.109375 15.09375 25.875 
Q 15.09375 2.390625 29.6875 -21.046875 
z
" id="ArialMT-40"/>
      <path d="M 6.6875 21.6875 
L 13.09375 54.6875 
L 22.125 54.6875 
L 15.71875 22.015625 
Q 15.234375 19.625 15.015625 17.921875 
Q 14.796875 16.21875 14.796875 15.09375 
Q 14.796875 10.9375 17.328125 8.65625 
Q 19.875 6.390625 24.515625 6.390625 
Q 31.734375 6.390625 37 11.265625 
Q 42.28125 16.15625 43.890625 24.421875 
L 49.90625 54.6875 
L 58.890625 54.6875 
L 48.296875 0 
L 39.3125 0 
L 41.109375 8.59375 
Q 37.3125 3.8125 32.0625 1.1875 
Q 26.8125 -1.421875 20.90625 -1.421875 
Q 13.71875 -1.421875 9.71875 2.515625 
Q 5.71875 6.453125 5.71875 13.484375 
Q 5.71875 14.9375 5.953125 17.140625 
Q 6.203125 19.34375 6.6875 21.6875 
z
" id="DejaVuSans-Oblique-117"/>
      <path d="M 25.390625 72.90625 
L 33.6875 72.90625 
L 8.296875 -9.28125 
L 0 -9.28125 
z
" id="DejaVuSans-47"/>
      <path d="M 48.09375 32.234375 
Q 48.25 33.015625 48.3125 33.84375 
Q 48.390625 34.671875 48.390625 35.5 
Q 48.390625 41.453125 44.890625 44.921875 
Q 41.40625 48.390625 35.40625 48.390625 
Q 28.71875 48.390625 23.578125 44.15625 
Q 18.453125 39.9375 15.828125 32.171875 
z
M 55.90625 25.203125 
L 14.109375 25.203125 
Q 13.8125 23.34375 13.71875 22.265625 
Q 13.625 21.1875 13.625 20.40625 
Q 13.625 13.625 17.796875 9.90625 
Q 21.96875 6.203125 29.59375 6.203125 
Q 35.453125 6.203125 40.671875 7.515625 
Q 45.90625 8.84375 50.390625 11.375 
L 48.6875 2.484375 
Q 43.84375 0.53125 38.6875 -0.4375 
Q 33.546875 -1.421875 28.21875 -1.421875 
Q 16.84375 -1.421875 10.71875 4.015625 
Q 4.59375 9.46875 4.59375 19.484375 
Q 4.59375 28.03125 7.640625 35.375 
Q 10.6875 42.71875 16.609375 48.484375 
Q 20.40625 52.09375 25.65625 54.046875 
Q 30.90625 56 36.8125 56 
Q 46.09375 56 51.578125 50.4375 
Q 57.078125 44.875 57.078125 35.5 
Q 57.078125 33.25 56.78125 30.6875 
Q 56.5 28.125 55.90625 25.203125 
z
" id="DejaVuSans-Oblique-101"/>
      <path d="M 12.359375 -21.046875 
L 6.0625 -21.046875 
Q 20.65625 2.390625 20.65625 25.875 
Q 20.65625 35.0625 18.5625 44.09375 
Q 16.890625 51.421875 13.921875 58.15625 
Q 12.015625 62.546875 6.0625 72.796875 
L 12.359375 72.796875 
Q 21.53125 60.546875 25.921875 48.1875 
Q 29.6875 37.546875 29.6875 25.921875 
Q 29.6875 12.75 24.625 0.4375 
Q 19.578125 -11.859375 12.359375 -21.046875 
z
" id="ArialMT-41"/>
     </defs>
     <g style="fill:#262626;" transform="translate(282.64 380.173313)scale(0.11 -0.11)">
      <use transform="translate(0 0.584375)" xlink:href="#DejaVuSans-Oblique-102"/>
      <use transform="translate(42.652786 38.865625)scale(0.7)" xlink:href="#Cmsy10-48"/>
      <use transform="translate(64.630326 0.584375)" xlink:href="#ArialMT-32"/>
      <use transform="translate(92.413529 0.584375)" xlink:href="#ArialMT-40"/>
      <use transform="translate(125.71431 0.584375)" xlink:href="#DejaVuSans-Oblique-117"/>
      <use transform="translate(189.093216 0.584375)" xlink:href="#DejaVuSans-47"/>
      <use transform="translate(222.784622 0.584375)" xlink:href="#DejaVuSans-Oblique-117"/>
      <use transform="translate(286.163529 -15.821875)scale(0.7)" xlink:href="#DejaVuSans-Oblique-101"/>
      <use transform="translate(331.96431 0.584375)" xlink:href="#ArialMT-41"/>
     </g>
    </g>
   </g>
   <g id="matplotlib.axis_2">
    <g id="ytick_1">
     <g id="line2d_13">
      <path clip-path="url(#p221931d06b)" d="M 40.34 336.632011 
L 565.2 336.632011 
" style="fill:none;stroke:#ffffff;stroke-linecap:round;"/>
     </g>
     <g id="line2d_14"/>
     <g id="text_8">
      <!-- 0 -->
      <g style="fill:#262626;" transform="translate(27.779063 340.210918)scale(0.1 -0.1)">
       <use xlink:href="#ArialMT-48"/>
      </g>
     </g>
    </g>
    <g id="ytick_2">
     <g id="line2d_15">
      <path clip-path="url(#p221931d06b)" d="M 40.34 294.300615 
L 565.2 294.300615 
" style="fill:none;stroke:#ffffff;stroke-linecap:round;"/>
     </g>
     <g id="line2d_16"/>
     <g id="text_9">
      <!-- 1 -->
      <g style="fill:#262626;" transform="translate(27.779063 297.879522)scale(0.1 -0.1)">
       <use xlink:href="#ArialMT-49"/>
      </g>
     </g>
    </g>
    <g id="ytick_3">
     <g id="line2d_17">
      <path clip-path="url(#p221931d06b)" d="M 40.34 251.969219 
L 565.2 251.969219 
" style="fill:none;stroke:#ffffff;stroke-linecap:round;"/>
     </g>
     <g id="line2d_18"/>
     <g id="text_10">
      <!-- 2 -->
      <g style="fill:#262626;" transform="translate(27.779063 255.548125)scale(0.1 -0.1)">
       <use xlink:href="#ArialMT-50"/>
      </g>
     </g>
    </g>
    <g id="ytick_4">
     <g id="line2d_19">
      <path clip-path="url(#p221931d06b)" d="M 40.34 209.637823 
L 565.2 209.637823 
" style="fill:none;stroke:#ffffff;stroke-linecap:round;"/>
     </g>
     <g id="line2d_20"/>
     <g id="text_11">
      <!-- 3 -->
      <defs>
       <path d="M 4.203125 18.890625 
L 12.984375 20.0625 
Q 14.5 12.59375 18.140625 9.296875 
Q 21.78125 6 27 6 
Q 33.203125 6 37.46875 10.296875 
Q 41.75 14.59375 41.75 20.953125 
Q 41.75 27 37.796875 30.921875 
Q 33.84375 34.859375 27.734375 34.859375 
Q 25.25 34.859375 21.53125 33.890625 
L 22.515625 41.609375 
Q 23.390625 41.5 23.921875 41.5 
Q 29.546875 41.5 34.03125 44.421875 
Q 38.53125 47.359375 38.53125 53.46875 
Q 38.53125 58.296875 35.25 61.46875 
Q 31.984375 64.65625 26.8125 64.65625 
Q 21.6875 64.65625 18.265625 61.421875 
Q 14.84375 58.203125 13.875 51.765625 
L 5.078125 53.328125 
Q 6.6875 62.15625 12.390625 67.015625 
Q 18.109375 71.875 26.609375 71.875 
Q 32.46875 71.875 37.390625 69.359375 
Q 42.328125 66.84375 44.9375 62.5 
Q 47.5625 58.15625 47.5625 53.265625 
Q 47.5625 48.640625 45.0625 44.828125 
Q 42.578125 41.015625 37.703125 38.765625 
Q 44.046875 37.3125 47.5625 32.6875 
Q 51.078125 28.078125 51.078125 21.140625 
Q 51.078125 11.765625 44.234375 5.25 
Q 37.40625 -1.265625 26.953125 -1.265625 
Q 17.53125 -1.265625 11.296875 4.34375 
Q 5.078125 9.96875 4.203125 18.890625 
z
" id="ArialMT-51"/>
      </defs>
      <g style="fill:#262626;" transform="translate(27.779063 213.216729)scale(0.1 -0.1)">
       <use xlink:href="#ArialMT-51"/>
      </g>
     </g>
    </g>
    <g id="ytick_5">
     <g id="line2d_21">
      <path clip-path="url(#p221931d06b)" d="M 40.34 167.306427 
L 565.2 167.306427 
" style="fill:none;stroke:#ffffff;stroke-linecap:round;"/>
     </g>
     <g id="line2d_22"/>
     <g id="text_12">
      <!-- 4 -->
      <g style="fill:#262626;" transform="translate(27.779063 170.885333)scale(0.1 -0.1)">
       <use xlink:href="#ArialMT-52"/>
      </g>
     </g>
    </g>
    <g id="ytick_6">
     <g id="line2d_23">
      <path clip-path="url(#p221931d06b)" d="M 40.34 124.975031 
L 565.2 124.975031 
" style="fill:none;stroke:#ffffff;stroke-linecap:round;"/>
     </g>
     <g id="line2d_24"/>
     <g id="text_13">
      <!-- 5 -->
      <defs>
       <path d="M 4.15625 18.75 
L 13.375 19.53125 
Q 14.40625 12.796875 18.140625 9.390625 
Q 21.875 6 27.15625 6 
Q 33.5 6 37.890625 10.78125 
Q 42.28125 15.578125 42.28125 23.484375 
Q 42.28125 31 38.0625 35.34375 
Q 33.84375 39.703125 27 39.703125 
Q 22.75 39.703125 19.328125 37.765625 
Q 15.921875 35.84375 13.96875 32.765625 
L 5.71875 33.84375 
L 12.640625 70.609375 
L 48.25 70.609375 
L 48.25 62.203125 
L 19.671875 62.203125 
L 15.828125 42.96875 
Q 22.265625 47.46875 29.34375 47.46875 
Q 38.71875 47.46875 45.15625 40.96875 
Q 51.609375 34.46875 51.609375 24.265625 
Q 51.609375 14.546875 45.953125 7.46875 
Q 39.0625 -1.21875 27.15625 -1.21875 
Q 17.390625 -1.21875 11.203125 4.25 
Q 5.03125 9.71875 4.15625 18.75 
z
" id="ArialMT-53"/>
      </defs>
      <g style="fill:#262626;" transform="translate(27.779063 128.553937)scale(0.1 -0.1)">
       <use xlink:href="#ArialMT-53"/>
      </g>
     </g>
    </g>
    <g id="ytick_7">
     <g id="line2d_25">
      <path clip-path="url(#p221931d06b)" d="M 40.34 82.643635 
L 565.2 82.643635 
" style="fill:none;stroke:#ffffff;stroke-linecap:round;"/>
     </g>
     <g id="line2d_26"/>
     <g id="text_14">
      <!-- 6 -->
      <g style="fill:#262626;" transform="translate(27.779063 86.222541)scale(0.1 -0.1)">
       <use xlink:href="#ArialMT-54"/>
      </g>
     </g>
    </g>
    <g id="ytick_8">
     <g id="line2d_27">
      <path clip-path="url(#p221931d06b)" d="M 40.34 40.312239 
L 565.2 40.312239 
" style="fill:none;stroke:#ffffff;stroke-linecap:round;"/>
     </g>
     <g id="line2d_28"/>
     <g id="text_15">
      <!-- 7 -->
      <defs>
       <path d="M 4.734375 62.203125 
L 4.734375 70.65625 
L 51.078125 70.65625 
L 51.078125 63.8125 
Q 44.234375 56.546875 37.515625 44.484375 
Q 30.8125 32.421875 27.15625 19.671875 
Q 24.515625 10.6875 23.78125 0 
L 14.75 0 
Q 14.890625 8.453125 18.0625 20.40625 
Q 21.234375 32.375 27.171875 43.484375 
Q 33.109375 54.59375 39.796875 62.203125 
z
" id="ArialMT-55"/>
      </defs>
      <g style="fill:#262626;" transform="translate(27.779063 43.891145)scale(0.1 -0.1)">
       <use xlink:href="#ArialMT-55"/>
      </g>
     </g>
    </g>
    <g id="text_16">
     <!-- $\eta$ (Nondim. wall distance) -->
     <defs>
      <path d="M 57.859375 33.015625 
L 47.40625 -20.796875 
L 38.421875 -20.796875 
L 48.828125 32.71875 
Q 50.34375 40.484375 48.046875 44.34375 
Q 45.796875 48.1875 39.75 48.1875 
Q 32.46875 48.1875 27.34375 43.5625 
Q 22.265625 38.921875 20.703125 30.90625 
L 14.703125 0 
L 5.671875 0 
L 16.3125 54.6875 
L 25.34375 54.6875 
L 23.6875 46.1875 
Q 27.828125 51.125 32.71875 53.5625 
Q 37.546875 56 43.265625 56 
Q 52.6875 56 56.390625 50.203125 
Q 60.0625 44.34375 57.859375 33.015625 
z
" id="DejaVuSans-Oblique-951"/>
      <path d="M 7.625 0 
L 7.625 71.578125 
L 17.328125 71.578125 
L 54.9375 15.375 
L 54.9375 71.578125 
L 64.015625 71.578125 
L 64.015625 0 
L 54.296875 0 
L 16.703125 56.25 
L 16.703125 0 
z
" id="ArialMT-78"/>
      <path d="M 3.328125 25.921875 
Q 3.328125 40.328125 11.328125 47.265625 
Q 18.015625 53.03125 27.640625 53.03125 
Q 38.328125 53.03125 45.109375 46.015625 
Q 51.90625 39.015625 51.90625 26.65625 
Q 51.90625 16.65625 48.90625 10.90625 
Q 45.90625 5.171875 40.15625 2 
Q 34.421875 -1.171875 27.640625 -1.171875 
Q 16.75 -1.171875 10.03125 5.8125 
Q 3.328125 12.796875 3.328125 25.921875 
z
M 12.359375 25.921875 
Q 12.359375 15.96875 16.703125 11.015625 
Q 21.046875 6.0625 27.640625 6.0625 
Q 34.1875 6.0625 38.53125 11.03125 
Q 42.875 16.015625 42.875 26.21875 
Q 42.875 35.84375 38.5 40.796875 
Q 34.125 45.75 27.640625 45.75 
Q 21.046875 45.75 16.703125 40.8125 
Q 12.359375 35.890625 12.359375 25.921875 
z
" id="ArialMT-111"/>
      <path d="M 6.59375 0 
L 6.59375 51.859375 
L 14.5 51.859375 
L 14.5 44.484375 
Q 20.21875 53.03125 31 53.03125 
Q 35.6875 53.03125 39.625 51.34375 
Q 43.5625 49.65625 45.515625 46.921875 
Q 47.46875 44.1875 48.25 40.4375 
Q 48.734375 37.984375 48.734375 31.890625 
L 48.734375 0 
L 39.9375 0 
L 39.9375 31.546875 
Q 39.9375 36.921875 38.90625 39.578125 
Q 37.890625 42.234375 35.28125 43.8125 
Q 32.671875 45.40625 29.15625 45.40625 
Q 23.53125 45.40625 19.453125 41.84375 
Q 15.375 38.28125 15.375 28.328125 
L 15.375 0 
z
" id="ArialMT-110"/>
      <path d="M 40.234375 0 
L 40.234375 6.546875 
Q 35.296875 -1.171875 25.734375 -1.171875 
Q 19.53125 -1.171875 14.328125 2.25 
Q 9.125 5.671875 6.265625 11.796875 
Q 3.421875 17.921875 3.421875 25.875 
Q 3.421875 33.640625 6 39.96875 
Q 8.59375 46.296875 13.765625 49.65625 
Q 18.953125 53.03125 25.34375 53.03125 
Q 30.03125 53.03125 33.6875 51.046875 
Q 37.359375 49.078125 39.65625 45.90625 
L 39.65625 71.578125 
L 48.390625 71.578125 
L 48.390625 0 
z
M 12.453125 25.875 
Q 12.453125 15.921875 16.640625 10.984375 
Q 20.84375 6.0625 26.5625 6.0625 
Q 32.328125 6.0625 36.34375 10.765625 
Q 40.375 15.484375 40.375 25.140625 
Q 40.375 35.796875 36.265625 40.765625 
Q 32.171875 45.75 26.171875 45.75 
Q 20.3125 45.75 16.375 40.96875 
Q 12.453125 36.1875 12.453125 25.875 
z
" id="ArialMT-100"/>
      <path d="M 6.640625 61.46875 
L 6.640625 71.578125 
L 15.4375 71.578125 
L 15.4375 61.46875 
z
M 6.640625 0 
L 6.640625 51.859375 
L 15.4375 51.859375 
L 15.4375 0 
z
" id="ArialMT-105"/>
      <path d="M 6.59375 0 
L 6.59375 51.859375 
L 14.453125 51.859375 
L 14.453125 44.578125 
Q 16.890625 48.390625 20.9375 50.703125 
Q 25 53.03125 30.171875 53.03125 
Q 35.9375 53.03125 39.625 50.640625 
Q 43.3125 48.25 44.828125 43.953125 
Q 50.984375 53.03125 60.84375 53.03125 
Q 68.5625 53.03125 72.703125 48.75 
Q 76.859375 44.484375 76.859375 35.59375 
L 76.859375 0 
L 68.109375 0 
L 68.109375 32.671875 
Q 68.109375 37.9375 67.25 40.25 
Q 66.40625 42.578125 64.15625 43.984375 
Q 61.921875 45.40625 58.890625 45.40625 
Q 53.421875 45.40625 49.796875 41.765625 
Q 46.1875 38.140625 46.1875 30.125 
L 46.1875 0 
L 37.40625 0 
L 37.40625 33.6875 
Q 37.40625 39.546875 35.25 42.46875 
Q 33.109375 45.40625 28.21875 45.40625 
Q 24.515625 45.40625 21.359375 43.453125 
Q 18.21875 41.5 16.796875 37.734375 
Q 15.375 33.984375 15.375 26.90625 
L 15.375 0 
z
" id="ArialMT-109"/>
      <path d="M 16.15625 0 
L 0.296875 51.859375 
L 9.375 51.859375 
L 17.625 21.921875 
L 20.703125 10.796875 
Q 20.90625 11.625 23.390625 21.484375 
L 31.640625 51.859375 
L 40.671875 51.859375 
L 48.4375 21.78125 
L 51.03125 11.859375 
L 54 21.875 
L 62.890625 51.859375 
L 71.4375 51.859375 
L 55.21875 0 
L 46.09375 0 
L 37.84375 31.0625 
L 35.84375 39.890625 
L 25.34375 0 
z
" id="ArialMT-119"/>
      <path d="M 40.4375 6.390625 
Q 35.546875 2.25 31.03125 0.53125 
Q 26.515625 -1.171875 21.34375 -1.171875 
Q 12.796875 -1.171875 8.203125 3 
Q 3.609375 7.171875 3.609375 13.671875 
Q 3.609375 17.484375 5.34375 20.625 
Q 7.078125 23.78125 9.890625 25.6875 
Q 12.703125 27.59375 16.21875 28.5625 
Q 18.796875 29.25 24.03125 29.890625 
Q 34.671875 31.15625 39.703125 32.90625 
Q 39.75 34.71875 39.75 35.203125 
Q 39.75 40.578125 37.25 42.78125 
Q 33.890625 45.75 27.25 45.75 
Q 21.046875 45.75 18.09375 43.578125 
Q 15.140625 41.40625 13.71875 35.890625 
L 5.125 37.0625 
Q 6.296875 42.578125 8.984375 45.96875 
Q 11.671875 49.359375 16.75 51.1875 
Q 21.828125 53.03125 28.515625 53.03125 
Q 35.15625 53.03125 39.296875 51.46875 
Q 43.453125 49.90625 45.40625 47.53125 
Q 47.359375 45.171875 48.140625 41.546875 
Q 48.578125 39.3125 48.578125 33.453125 
L 48.578125 21.734375 
Q 48.578125 9.46875 49.140625 6.21875 
Q 49.703125 2.984375 51.375 0 
L 42.1875 0 
Q 40.828125 2.734375 40.4375 6.390625 
z
M 39.703125 26.03125 
Q 34.90625 24.078125 25.34375 22.703125 
Q 19.921875 21.921875 17.671875 20.9375 
Q 15.4375 19.96875 14.203125 18.09375 
Q 12.984375 16.21875 12.984375 13.921875 
Q 12.984375 10.40625 15.640625 8.0625 
Q 18.3125 5.71875 23.4375 5.71875 
Q 28.515625 5.71875 32.46875 7.9375 
Q 36.421875 10.15625 38.28125 14.015625 
Q 39.703125 17 39.703125 22.796875 
z
" id="ArialMT-97"/>
      <path d="M 6.390625 0 
L 6.390625 71.578125 
L 15.1875 71.578125 
L 15.1875 0 
z
" id="ArialMT-108"/>
      <path d="M 3.078125 15.484375 
L 11.765625 16.84375 
Q 12.5 11.625 15.84375 8.84375 
Q 19.1875 6.0625 25.203125 6.0625 
Q 31.25 6.0625 34.171875 8.515625 
Q 37.109375 10.984375 37.109375 14.3125 
Q 37.109375 17.28125 34.515625 19 
Q 32.71875 20.171875 25.53125 21.96875 
Q 15.875 24.421875 12.140625 26.203125 
Q 8.40625 27.984375 6.46875 31.125 
Q 4.546875 34.28125 4.546875 38.09375 
Q 4.546875 41.546875 6.125 44.5 
Q 7.71875 47.46875 10.453125 49.421875 
Q 12.5 50.921875 16.03125 51.96875 
Q 19.578125 53.03125 23.640625 53.03125 
Q 29.734375 53.03125 34.34375 51.265625 
Q 38.96875 49.515625 41.15625 46.5 
Q 43.359375 43.5 44.1875 38.484375 
L 35.59375 37.3125 
Q 35.015625 41.3125 32.203125 43.546875 
Q 29.390625 45.796875 24.265625 45.796875 
Q 18.21875 45.796875 15.625 43.796875 
Q 13.03125 41.796875 13.03125 39.109375 
Q 13.03125 37.40625 14.109375 36.03125 
Q 15.1875 34.625 17.484375 33.6875 
Q 18.796875 33.203125 25.25 31.453125 
Q 34.578125 28.953125 38.25 27.359375 
Q 41.9375 25.78125 44.03125 22.75 
Q 46.140625 19.734375 46.140625 15.234375 
Q 46.140625 10.84375 43.578125 6.953125 
Q 41.015625 3.078125 36.171875 0.953125 
Q 31.34375 -1.171875 25.25 -1.171875 
Q 15.140625 -1.171875 9.84375 3.03125 
Q 4.546875 7.234375 3.078125 15.484375 
z
" id="ArialMT-115"/>
      <path d="M 25.78125 7.859375 
L 27.046875 0.09375 
Q 23.34375 -0.6875 20.40625 -0.6875 
Q 15.625 -0.6875 12.984375 0.828125 
Q 10.359375 2.34375 9.28125 4.8125 
Q 8.203125 7.28125 8.203125 15.1875 
L 8.203125 45.015625 
L 1.765625 45.015625 
L 1.765625 51.859375 
L 8.203125 51.859375 
L 8.203125 64.703125 
L 16.9375 69.96875 
L 16.9375 51.859375 
L 25.78125 51.859375 
L 25.78125 45.015625 
L 16.9375 45.015625 
L 16.9375 14.703125 
Q 16.9375 10.9375 17.40625 9.859375 
Q 17.875 8.796875 18.921875 8.15625 
Q 19.96875 7.515625 21.921875 7.515625 
Q 23.390625 7.515625 25.78125 7.859375 
z
" id="ArialMT-116"/>
      <path d="M 40.4375 19 
L 49.078125 17.875 
Q 47.65625 8.9375 41.8125 3.875 
Q 35.984375 -1.171875 27.484375 -1.171875 
Q 16.84375 -1.171875 10.375 5.78125 
Q 3.90625 12.75 3.90625 25.734375 
Q 3.90625 34.125 6.6875 40.421875 
Q 9.46875 46.734375 15.15625 49.875 
Q 20.84375 53.03125 27.546875 53.03125 
Q 35.984375 53.03125 41.359375 48.75 
Q 46.734375 44.484375 48.25 36.625 
L 39.703125 35.296875 
Q 38.484375 40.53125 35.375 43.15625 
Q 32.28125 45.796875 27.875 45.796875 
Q 21.234375 45.796875 17.078125 41.03125 
Q 12.9375 36.28125 12.9375 25.984375 
Q 12.9375 15.53125 16.9375 10.796875 
Q 20.953125 6.0625 27.390625 6.0625 
Q 32.5625 6.0625 36.03125 9.234375 
Q 39.5 12.40625 40.4375 19 
z
" id="ArialMT-99"/>
      <path d="M 42.09375 16.703125 
L 51.171875 15.578125 
Q 49.03125 7.625 43.21875 3.21875 
Q 37.40625 -1.171875 28.375 -1.171875 
Q 17 -1.171875 10.328125 5.828125 
Q 3.65625 12.84375 3.65625 25.484375 
Q 3.65625 38.578125 10.390625 45.796875 
Q 17.140625 53.03125 27.875 53.03125 
Q 38.28125 53.03125 44.875 45.953125 
Q 51.46875 38.875 51.46875 26.03125 
Q 51.46875 25.25 51.421875 23.6875 
L 12.75 23.6875 
Q 13.234375 15.140625 17.578125 10.59375 
Q 21.921875 6.0625 28.421875 6.0625 
Q 33.25 6.0625 36.671875 8.59375 
Q 40.09375 11.140625 42.09375 16.703125 
z
M 13.234375 30.90625 
L 42.1875 30.90625 
Q 41.609375 37.453125 38.875 40.71875 
Q 34.671875 45.796875 27.984375 45.796875 
Q 21.921875 45.796875 17.796875 41.75 
Q 13.671875 37.703125 13.234375 30.90625 
z
" id="ArialMT-101"/>
     </defs>
     <g style="fill:#262626;" transform="translate(21.359063 250.677125)rotate(-90)scale(0.11 -0.11)">
      <use transform="translate(0 0.203125)" xlink:href="#DejaVuSans-Oblique-951"/>
      <use transform="translate(63.378906 0.203125)" xlink:href="#ArialMT-32"/>
      <use transform="translate(91.162109 0.203125)" xlink:href="#ArialMT-40"/>
      <use transform="translate(124.462891 0.203125)" xlink:href="#ArialMT-78"/>
      <use transform="translate(196.679688 0.203125)" xlink:href="#ArialMT-111"/>
      <use transform="translate(252.294922 0.203125)" xlink:href="#ArialMT-110"/>
      <use transform="translate(307.910156 0.203125)" xlink:href="#ArialMT-100"/>
      <use transform="translate(363.525391 0.203125)" xlink:href="#ArialMT-105"/>
      <use transform="translate(385.742188 0.203125)" xlink:href="#ArialMT-109"/>
      <use transform="translate(469.042969 0.203125)" xlink:href="#ArialMT-46"/>
      <use transform="translate(496.826172 0.203125)" xlink:href="#ArialMT-32"/>
      <use transform="translate(524.609375 0.203125)" xlink:href="#ArialMT-119"/>
      <use transform="translate(596.826172 0.203125)" xlink:href="#ArialMT-97"/>
      <use transform="translate(652.441406 0.203125)" xlink:href="#ArialMT-108"/>
      <use transform="translate(674.658203 0.203125)" xlink:href="#ArialMT-108"/>
      <use transform="translate(696.875 0.203125)" xlink:href="#ArialMT-32"/>
      <use transform="translate(724.658203 0.203125)" xlink:href="#ArialMT-100"/>
      <use transform="translate(780.273438 0.203125)" xlink:href="#ArialMT-105"/>
      <use transform="translate(802.490234 0.203125)" xlink:href="#ArialMT-115"/>
      <use transform="translate(852.490234 0.203125)" xlink:href="#ArialMT-116"/>
      <use transform="translate(880.273438 0.203125)" xlink:href="#ArialMT-97"/>
      <use transform="translate(935.888672 0.203125)" xlink:href="#ArialMT-110"/>
      <use transform="translate(991.503906 0.203125)" xlink:href="#ArialMT-99"/>
      <use transform="translate(1041.503906 0.203125)" xlink:href="#ArialMT-101"/>
      <use transform="translate(1097.119141 0.203125)" xlink:href="#ArialMT-41"/>
     </g>
    </g>
   </g>
   <g id="patch_3">
    <path d="M 40.34 351.448 
L 40.34 25.49625 
" style="fill:none;"/>
   </g>
   <g id="patch_4">
    <path d="M 565.2 351.448 
L 565.2 25.49625 
" style="fill:none;"/>
   </g>
   <g id="patch_5">
    <path d="M 40.34 351.448 
L 565.2 351.448 
" style="fill:none;"/>
   </g>
   <g id="patch_6">
    <path d="M 40.34 25.49625 
L 565.2 25.49625 
" style="fill:none;"/>
   </g>
   <g id="text_17">
    <!-- Falkner-Skan Velocity Profiles -->
    <defs>
     <path d="M 8.203125 0 
L 8.203125 71.578125 
L 56.5 71.578125 
L 56.5 63.140625 
L 17.671875 63.140625 
L 17.671875 40.96875 
L 51.265625 40.96875 
L 51.265625 32.515625 
L 17.671875 32.515625 
L 17.671875 0 
z
" id="ArialMT-70"/>
     <path d="M 6.640625 0 
L 6.640625 71.578125 
L 15.4375 71.578125 
L 15.4375 30.765625 
L 36.234375 51.859375 
L 47.609375 51.859375 
L 27.78125 32.625 
L 49.609375 0 
L 38.765625 0 
L 21.625 26.515625 
L 15.4375 20.5625 
L 15.4375 0 
z
" id="ArialMT-107"/>
     <path d="M 6.5 0 
L 6.5 51.859375 
L 14.40625 51.859375 
L 14.40625 44 
Q 17.4375 49.515625 20 51.265625 
Q 22.5625 53.03125 25.640625 53.03125 
Q 30.078125 53.03125 34.671875 50.203125 
L 31.640625 42.046875 
Q 28.421875 43.953125 25.203125 43.953125 
Q 22.3125 43.953125 20.015625 42.21875 
Q 17.71875 40.484375 16.75 37.40625 
Q 15.28125 32.71875 15.28125 27.15625 
L 15.28125 0 
z
" id="ArialMT-114"/>
     <path d="M 3.171875 21.484375 
L 3.171875 30.328125 
L 30.171875 30.328125 
L 30.171875 21.484375 
z
" id="ArialMT-45"/>
     <path d="M 4.5 23 
L 13.421875 23.78125 
Q 14.0625 18.40625 16.375 14.96875 
Q 18.703125 11.53125 23.578125 9.40625 
Q 28.46875 7.28125 34.578125 7.28125 
Q 39.984375 7.28125 44.140625 8.890625 
Q 48.296875 10.5 50.3125 13.296875 
Q 52.34375 16.109375 52.34375 19.4375 
Q 52.34375 22.796875 50.390625 25.3125 
Q 48.4375 27.828125 43.953125 29.546875 
Q 41.0625 30.671875 31.203125 33.03125 
Q 21.34375 35.40625 17.390625 37.5 
Q 12.25 40.1875 9.734375 44.15625 
Q 7.234375 48.140625 7.234375 53.078125 
Q 7.234375 58.5 10.296875 63.203125 
Q 13.375 67.921875 19.28125 70.359375 
Q 25.203125 72.796875 32.421875 72.796875 
Q 40.375 72.796875 46.453125 70.234375 
Q 52.546875 67.671875 55.8125 62.6875 
Q 59.078125 57.71875 59.328125 51.421875 
L 50.25 50.734375 
Q 49.515625 57.515625 45.28125 60.984375 
Q 41.0625 64.453125 32.8125 64.453125 
Q 24.21875 64.453125 20.28125 61.296875 
Q 16.359375 58.15625 16.359375 53.71875 
Q 16.359375 49.859375 19.140625 47.359375 
Q 21.875 44.875 33.421875 42.265625 
Q 44.96875 39.65625 49.265625 37.703125 
Q 55.515625 34.8125 58.484375 30.390625 
Q 61.46875 25.984375 61.46875 20.21875 
Q 61.46875 14.5 58.203125 9.4375 
Q 54.9375 4.390625 48.796875 1.578125 
Q 42.671875 -1.21875 35.015625 -1.21875 
Q 25.296875 -1.21875 18.71875 1.609375 
Q 12.15625 4.4375 8.421875 10.125 
Q 4.6875 15.828125 4.5 23 
z
" id="ArialMT-83"/>
     <path d="M 28.171875 0 
L 0.4375 71.578125 
L 10.6875 71.578125 
L 29.296875 19.578125 
Q 31.546875 13.328125 33.0625 7.859375 
Q 34.71875 13.71875 36.921875 19.578125 
L 56.25 71.578125 
L 65.921875 71.578125 
L 37.890625 0 
z
" id="ArialMT-86"/>
     <path d="M 6.203125 -19.96875 
L 5.21875 -11.71875 
Q 8.109375 -12.5 10.25 -12.5 
Q 13.1875 -12.5 14.9375 -11.515625 
Q 16.703125 -10.546875 17.828125 -8.796875 
Q 18.65625 -7.46875 20.515625 -2.25 
Q 20.75 -1.515625 21.296875 -0.09375 
L 1.609375 51.859375 
L 11.078125 51.859375 
L 21.875 21.828125 
Q 23.96875 16.109375 25.640625 9.8125 
Q 27.15625 15.875 29.25 21.625 
L 40.328125 51.859375 
L 49.125 51.859375 
L 29.390625 -0.875 
Q 26.21875 -9.421875 24.46875 -12.640625 
Q 22.125 -17 19.09375 -19.015625 
Q 16.0625 -21.046875 11.859375 -21.046875 
Q 9.328125 -21.046875 6.203125 -19.96875 
z
" id="ArialMT-121"/>
     <path d="M 7.71875 0 
L 7.71875 71.578125 
L 34.71875 71.578125 
Q 41.84375 71.578125 45.609375 70.90625 
Q 50.875 70.015625 54.4375 67.546875 
Q 58.015625 65.09375 60.1875 60.640625 
Q 62.359375 56.203125 62.359375 50.875 
Q 62.359375 41.75 56.546875 35.421875 
Q 50.734375 29.109375 35.546875 29.109375 
L 17.1875 29.109375 
L 17.1875 0 
z
M 17.1875 37.546875 
L 35.6875 37.546875 
Q 44.875 37.546875 48.734375 40.96875 
Q 52.59375 44.390625 52.59375 50.59375 
Q 52.59375 55.078125 50.3125 58.265625 
Q 48.046875 61.46875 44.34375 62.5 
Q 41.9375 63.140625 35.5 63.140625 
L 17.1875 63.140625 
z
" id="ArialMT-80"/>
     <path d="M 8.6875 0 
L 8.6875 45.015625 
L 0.921875 45.015625 
L 0.921875 51.859375 
L 8.6875 51.859375 
L 8.6875 57.375 
Q 8.6875 62.59375 9.625 65.140625 
Q 10.890625 68.5625 14.078125 70.671875 
Q 17.28125 72.796875 23.046875 72.796875 
Q 26.765625 72.796875 31.25 71.921875 
L 29.9375 64.265625 
Q 27.203125 64.75 24.75 64.75 
Q 20.75 64.75 19.09375 63.03125 
Q 17.4375 61.328125 17.4375 56.640625 
L 17.4375 51.859375 
L 27.546875 51.859375 
L 27.546875 45.015625 
L 17.4375 45.015625 
L 17.4375 0 
z
" id="ArialMT-102"/>
    </defs>
    <g style="fill:#262626;" transform="translate(222.747812 19.49625)scale(0.12 -0.12)">
     <use xlink:href="#ArialMT-70"/>
     <use x="61.083984" xlink:href="#ArialMT-97"/>
     <use x="116.699219" xlink:href="#ArialMT-108"/>
     <use x="138.916016" xlink:href="#ArialMT-107"/>
     <use x="188.916016" xlink:href="#ArialMT-110"/>
     <use x="244.53125" xlink:href="#ArialMT-101"/>
     <use x="300.146484" xlink:href="#ArialMT-114"/>
     <use x="333.447266" xlink:href="#ArialMT-45"/>
     <use x="366.748047" xlink:href="#ArialMT-83"/>
     <use x="433.447266" xlink:href="#ArialMT-107"/>
     <use x="483.447266" xlink:href="#ArialMT-97"/>
     <use x="539.0625" xlink:href="#ArialMT-110"/>
     <use x="594.677734" xlink:href="#ArialMT-32"/>
     <use x="622.460938" xlink:href="#ArialMT-86"/>
     <use x="689.082031" xlink:href="#ArialMT-101"/>
     <use x="744.697266" xlink:href="#ArialMT-108"/>
     <use x="766.914062" xlink:href="#ArialMT-111"/>
     <use x="822.529297" xlink:href="#ArialMT-99"/>
     <use x="872.529297" xlink:href="#ArialMT-105"/>
     <use x="894.746094" xlink:href="#ArialMT-116"/>
     <use x="922.529297" xlink:href="#ArialMT-121"/>
     <use x="972.529297" xlink:href="#ArialMT-32"/>
     <use x="1000.3125" xlink:href="#ArialMT-80"/>
     <use x="1067.011719" xlink:href="#ArialMT-114"/>
     <use x="1100.3125" xlink:href="#ArialMT-111"/>
     <use x="1155.927734" xlink:href="#ArialMT-102"/>
     <use x="1183.710938" xlink:href="#ArialMT-105"/>
     <use x="1205.927734" xlink:href="#ArialMT-108"/>
     <use x="1228.144531" xlink:href="#ArialMT-101"/>
     <use x="1283.759766" xlink:href="#ArialMT-115"/>
    </g>
   </g>
   <g id="line2d_29">
    <path clip-path="url(#p221931d06b)" d="M 64.197273 336.632011 
L 109.833637 333.638882 
L 152.316146 330.645753 
L 191.694861 327.652624 
L 228.047259 324.659495 
L 261.473101 321.666366 
L 292.089786 318.673237 
L 320.028184 315.680108 
L 345.428927 312.686979 
L 368.439161 309.69385 
L 389.209712 306.700721 
L 407.892655 303.707592 
L 424.639249 300.714463 
L 439.598215 297.721334 
L 452.914312 294.728205 
L 464.727205 291.735076 
L 475.17057 288.741947 
L 484.371419 285.748818 
L 492.449634 282.755689 
L 499.517651 279.76256 
L 505.680302 276.769431 
L 511.034782 273.776302 
L 515.67072 270.783173 
L 519.670334 267.790044 
L 523.108666 264.796915 
L 526.053868 261.803786 
L 528.567534 258.810657 
L 530.705067 255.817528 
L 532.516065 252.824399 
L 534.04472 249.83127 
L 535.330228 246.838141 
L 536.407187 243.845012 
L 537.306004 240.851883 
L 538.053271 237.858754 
L 538.672143 234.865625 
L 539.182687 231.872496 
L 539.602213 228.879367 
L 539.945586 225.886238 
L 540.225512 222.893109 
L 540.452799 219.89998 
L 540.636602 216.906851 
L 540.784636 213.913722 
L 540.903374 210.920593 
L 540.998223 207.927464 
L 541.073675 204.934335 
L 541.133447 201.941206 
L 541.180599 198.948077 
L 541.217638 195.954948 
L 541.246611 192.961819 
L 541.269178 189.96869 
L 541.286679 186.97556 
L 541.300194 183.982431 
L 541.310585 180.989302 
L 541.31854 177.996173 
L 541.324603 175.003044 
L 541.329204 172.009915 
L 541.33268 169.016786 
L 541.335295 166.023657 
L 541.337253 163.030528 
L 541.338713 160.037399 
L 541.339796 157.04427 
L 541.340596 154.051141 
L 541.341185 151.058012 
L 541.341616 148.064883 
L 541.34193 145.071754 
L 541.342158 142.078625 
L 541.342322 139.085496 
L 541.342441 136.092367 
L 541.342525 133.099238 
L 541.342586 130.106109 
L 541.342628 127.11298 
L 541.342658 124.119851 
L 541.34268 121.126722 
L 541.342694 118.133593 
L 541.342705 115.140464 
L 541.342712 112.147335 
L 541.342717 109.154206 
L 541.34272 106.161077 
L 541.342723 103.167948 
L 541.342724 100.174819 
L 541.342725 97.18169 
L 541.342726 94.188561 
L 541.342726 91.195432 
L 541.342727 88.202303 
L 541.342727 85.209174 
L 541.342727 82.216045 
L 541.342727 79.222916 
L 541.342727 76.229787 
L 541.342727 73.236658 
L 541.342727 70.243529 
L 541.342727 67.2504 
L 541.342727 64.257271 
L 541.342727 61.264142 
L 541.342727 58.271013 
L 541.342727 55.277884 
L 541.342727 52.284755 
L 541.342727 49.291626 
L 541.342727 46.298497 
L 541.342727 43.305368 
L 541.342727 40.312239 
" style="fill:none;stroke:#8000ff;stroke-linecap:round;stroke-width:1.75;"/>
   </g>
   <g id="line2d_30">
    <path clip-path="url(#p221931d06b)" d="M 64.197273 336.632011 
L 109.123926 333.638882 
L 151.008056 330.645753 
L 189.895607 327.652624 
L 225.857872 324.659495 
L 258.986941 321.666366 
L 289.391559 318.673237 
L 317.193379 315.680108 
L 342.52362 312.686979 
L 365.5201 309.69385 
L 386.324633 306.700721 
L 405.080776 303.707592 
L 421.931884 300.714463 
L 437.019472 297.721334 
L 450.481846 294.728205 
L 462.452977 291.735076 
L 473.061612 288.741947 
L 482.430569 285.748818 
L 490.676233 282.755689 
L 497.908192 279.76256 
L 504.229024 276.769431 
L 509.734202 273.776302 
L 514.512104 270.783173 
L 518.644108 267.790044 
L 522.204765 264.796915 
L 525.262031 261.803786 
L 527.877548 258.810657 
L 530.106956 255.817528 
L 532.000243 252.824399 
L 533.602103 249.83127 
L 534.95231 246.838141 
L 536.086094 243.845012 
L 537.034514 240.851883 
L 537.824825 237.858754 
L 538.480834 234.865625 
L 539.023237 231.872496 
L 539.469943 228.879367 
L 539.836378 225.886238 
L 540.135766 222.893109 
L 540.37939 219.89998 
L 540.576835 216.906851 
L 540.736201 213.913722 
L 540.864304 210.920593 
L 540.966853 207.927464 
L 541.048604 204.934335 
L 541.113502 201.941206 
L 541.164805 198.948077 
L 541.205189 195.954948 
L 541.236844 192.961819 
L 541.26155 189.96869 
L 541.28075 186.97556 
L 541.295606 183.982431 
L 541.307052 180.989302 
L 541.315831 177.996173 
L 541.322536 175.003044 
L 541.327634 172.009915 
L 541.331493 169.016786 
L 541.334402 166.023657 
L 541.336584 163.030528 
L 541.338214 160.037399 
L 541.339426 157.04427 
L 541.340323 154.051141 
L 541.340984 151.058012 
L 541.341469 148.064883 
L 541.341823 145.071754 
L 541.34208 142.078625 
L 541.342266 139.085496 
L 541.3424 136.092367 
L 541.342497 133.099238 
L 541.342565 130.106109 
L 541.342614 127.11298 
L 541.342648 124.119851 
L 541.342673 121.126722 
L 541.34269 118.133593 
L 541.342701 115.140464 
L 541.34271 112.147335 
L 541.342715 109.154206 
L 541.342719 106.161077 
L 541.342722 103.167948 
L 541.342724 100.174819 
L 541.342725 97.18169 
L 541.342726 94.188561 
L 541.342726 91.195432 
L 541.342727 88.202303 
L 541.342727 85.209174 
L 541.342727 82.216045 
L 541.342727 79.222916 
L 541.342727 76.229787 
L 541.342727 73.236658 
L 541.342727 70.243529 
L 541.342727 67.2504 
L 541.342727 64.257271 
L 541.342727 61.264142 
L 541.342727 58.271013 
L 541.342727 55.277884 
L 541.342727 52.284755 
L 541.342727 49.291626 
L 541.342727 46.298497 
L 541.342727 43.305368 
L 541.342727 40.312239 
" style="fill:none;stroke:#5a3bfd;stroke-linecap:round;stroke-width:1.75;"/>
   </g>
   <g id="legend_1">
    <g id="line2d_31">
     <path d="M 49.34 38.154063 
L 69.34 38.154063 
" style="fill:none;stroke:#ff0000;stroke-linecap:round;stroke-width:1.75;"/>
    </g>
    <g id="line2d_32"/>
    <g id="text_18">
     <!-- $m = -0.09$ -->
     <defs>
      <path d="M 89.796875 33.015625 
L 83.40625 0 
L 74.421875 0 
L 80.71875 32.71875 
Q 81.109375 34.8125 81.296875 36.328125 
Q 81.5 37.84375 81.5 38.921875 
Q 81.5 43.3125 79.046875 45.75 
Q 76.609375 48.1875 72.21875 48.1875 
Q 65.671875 48.1875 60.546875 43.28125 
Q 55.421875 38.375 53.90625 30.515625 
L 47.90625 0 
L 38.921875 0 
L 45.3125 32.71875 
Q 45.703125 34.515625 45.890625 36.046875 
Q 46.09375 37.59375 46.09375 38.8125 
Q 46.09375 43.265625 43.65625 45.71875 
Q 41.21875 48.1875 36.921875 48.1875 
Q 30.28125 48.1875 25.140625 43.28125 
Q 20.015625 38.375 18.5 30.515625 
L 12.5 0 
L 3.515625 0 
L 14.203125 54.6875 
L 23.1875 54.6875 
L 21.484375 46.1875 
Q 25.140625 50.984375 30.046875 53.484375 
Q 34.96875 56 40.578125 56 
Q 46.53125 56 50.359375 52.875 
Q 54.203125 49.75 54.984375 44.1875 
Q 59.078125 49.953125 64.46875 52.96875 
Q 69.875 56 75.875 56 
Q 82.90625 56 86.734375 51.953125 
Q 90.578125 47.90625 90.578125 40.484375 
Q 90.578125 38.875 90.375 36.9375 
Q 90.1875 35.015625 89.796875 33.015625 
z
" id="DejaVuSans-Oblique-109"/>
      <path d="M 10.59375 45.40625 
L 73.1875 45.40625 
L 73.1875 37.203125 
L 10.59375 37.203125 
z
M 10.59375 25.484375 
L 73.1875 25.484375 
L 73.1875 17.1875 
L 10.59375 17.1875 
z
" id="DejaVuSans-61"/>
      <path d="M 10.59375 35.5 
L 73.1875 35.5 
L 73.1875 27.203125 
L 10.59375 27.203125 
z
" id="DejaVuSans-8722"/>
      <path d="M 31.78125 66.40625 
Q 24.171875 66.40625 20.328125 58.90625 
Q 16.5 51.421875 16.5 36.375 
Q 16.5 21.390625 20.328125 13.890625 
Q 24.171875 6.390625 31.78125 6.390625 
Q 39.453125 6.390625 43.28125 13.890625 
Q 47.125 21.390625 47.125 36.375 
Q 47.125 51.421875 43.28125 58.90625 
Q 39.453125 66.40625 31.78125 66.40625 
z
M 31.78125 74.21875 
Q 44.046875 74.21875 50.515625 64.515625 
Q 56.984375 54.828125 56.984375 36.375 
Q 56.984375 17.96875 50.515625 8.265625 
Q 44.046875 -1.421875 31.78125 -1.421875 
Q 19.53125 -1.421875 13.0625 8.265625 
Q 6.59375 17.96875 6.59375 36.375 
Q 6.59375 54.828125 13.0625 64.515625 
Q 19.53125 74.21875 31.78125 74.21875 
z
" id="DejaVuSans-48"/>
      <path d="M 10.6875 12.40625 
L 21 12.40625 
L 21 0 
L 10.6875 0 
z
" id="DejaVuSans-46"/>
      <path d="M 10.984375 1.515625 
L 10.984375 10.5 
Q 14.703125 8.734375 18.5 7.8125 
Q 22.3125 6.890625 25.984375 6.890625 
Q 35.75 6.890625 40.890625 13.453125 
Q 46.046875 20.015625 46.78125 33.40625 
Q 43.953125 29.203125 39.59375 26.953125 
Q 35.25 24.703125 29.984375 24.703125 
Q 19.046875 24.703125 12.671875 31.3125 
Q 6.296875 37.9375 6.296875 49.421875 
Q 6.296875 60.640625 12.9375 67.421875 
Q 19.578125 74.21875 30.609375 74.21875 
Q 43.265625 74.21875 49.921875 64.515625 
Q 56.59375 54.828125 56.59375 36.375 
Q 56.59375 19.140625 48.40625 8.859375 
Q 40.234375 -1.421875 26.421875 -1.421875 
Q 22.703125 -1.421875 18.890625 -0.6875 
Q 15.09375 0.046875 10.984375 1.515625 
z
M 30.609375 32.421875 
Q 37.25 32.421875 41.125 36.953125 
Q 45.015625 41.5 45.015625 49.421875 
Q 45.015625 57.28125 41.125 61.84375 
Q 37.25 66.40625 30.609375 66.40625 
Q 23.96875 66.40625 20.09375 61.84375 
Q 16.21875 57.28125 16.21875 49.421875 
Q 16.21875 41.5 20.09375 36.953125 
Q 23.96875 32.421875 30.609375 32.421875 
z
" id="DejaVuSans-57"/>
     </defs>
     <g style="fill:#262626;" transform="translate(77.34 41.654063)scale(0.1 -0.1)">
      <use transform="translate(0 0.78125)" xlink:href="#DejaVuSans-Oblique-109"/>
      <use transform="translate(116.894531 0.78125)" xlink:href="#DejaVuSans-61"/>
      <use transform="translate(239.648438 0.78125)" xlink:href="#DejaVuSans-8722"/>
      <use transform="translate(342.919922 0.78125)" xlink:href="#DejaVuSans-48"/>
      <use transform="translate(406.542969 0.78125)" xlink:href="#DejaVuSans-46"/>
      <use transform="translate(438.330078 0.78125)" xlink:href="#DejaVuSans-48"/>
      <use transform="translate(501.953125 0.78125)" xlink:href="#DejaVuSans-57"/>
     </g>
    </g>
    <g id="line2d_33">
     <path d="M 49.34 52.299375 
L 69.34 52.299375 
" style="fill:none;stroke:#ff3b1e;stroke-linecap:round;stroke-width:1.75;"/>
    </g>
    <g id="line2d_34"/>
    <g id="text_19">
     <!-- $m = -0.08$ -->
     <defs>
      <path d="M 31.78125 34.625 
Q 24.75 34.625 20.71875 30.859375 
Q 16.703125 27.09375 16.703125 20.515625 
Q 16.703125 13.921875 20.71875 10.15625 
Q 24.75 6.390625 31.78125 6.390625 
Q 38.8125 6.390625 42.859375 10.171875 
Q 46.921875 13.96875 46.921875 20.515625 
Q 46.921875 27.09375 42.890625 30.859375 
Q 38.875 34.625 31.78125 34.625 
z
M 21.921875 38.8125 
Q 15.578125 40.375 12.03125 44.71875 
Q 8.5 49.078125 8.5 55.328125 
Q 8.5 64.0625 14.71875 69.140625 
Q 20.953125 74.21875 31.78125 74.21875 
Q 42.671875 74.21875 48.875 69.140625 
Q 55.078125 64.0625 55.078125 55.328125 
Q 55.078125 49.078125 51.53125 44.71875 
Q 48 40.375 41.703125 38.8125 
Q 48.828125 37.15625 52.796875 32.3125 
Q 56.78125 27.484375 56.78125 20.515625 
Q 56.78125 9.90625 50.3125 4.234375 
Q 43.84375 -1.421875 31.78125 -1.421875 
Q 19.734375 -1.421875 13.25 4.234375 
Q 6.78125 9.90625 6.78125 20.515625 
Q 6.78125 27.484375 10.78125 32.3125 
Q 14.796875 37.15625 21.921875 38.8125 
z
M 18.3125 54.390625 
Q 18.3125 48.734375 21.84375 45.5625 
Q 25.390625 42.390625 31.78125 42.390625 
Q 38.140625 42.390625 41.71875 45.5625 
Q 45.3125 48.734375 45.3125 54.390625 
Q 45.3125 60.0625 41.71875 63.234375 
Q 38.140625 66.40625 31.78125 66.40625 
Q 25.390625 66.40625 21.84375 63.234375 
Q 18.3125 60.0625 18.3125 54.390625 
z
" id="DejaVuSans-56"/>
     </defs>
     <g style="fill:#262626;" transform="translate(77.34 55.799375)scale(0.1 -0.1)">
      <use transform="translate(0 0.78125)" xlink:href="#DejaVuSans-Oblique-109"/>
      <use transform="translate(116.894531 0.78125)" xlink:href="#DejaVuSans-61"/>
      <use transform="translate(239.648438 0.78125)" xlink:href="#DejaVuSans-8722"/>
      <use transform="translate(342.919922 0.78125)" xlink:href="#DejaVuSans-48"/>
      <use transform="translate(406.542969 0.78125)" xlink:href="#DejaVuSans-46"/>
      <use transform="translate(438.330078 0.78125)" xlink:href="#DejaVuSans-48"/>
      <use transform="translate(501.953125 0.78125)" xlink:href="#DejaVuSans-56"/>
     </g>
    </g>
    <g id="line2d_35">
     <path d="M 49.34 66.444687 
L 69.34 66.444687 
" style="fill:none;stroke:#ff763d;stroke-linecap:round;stroke-width:1.75;"/>
    </g>
    <g id="line2d_36"/>
    <g id="text_20">
     <!-- $m = -0.05$ -->
     <defs>
      <path d="M 10.796875 72.90625 
L 49.515625 72.90625 
L 49.515625 64.59375 
L 19.828125 64.59375 
L 19.828125 46.734375 
Q 21.96875 47.46875 24.109375 47.828125 
Q 26.265625 48.1875 28.421875 48.1875 
Q 40.625 48.1875 47.75 41.5 
Q 54.890625 34.8125 54.890625 23.390625 
Q 54.890625 11.625 47.5625 5.09375 
Q 40.234375 -1.421875 26.90625 -1.421875 
Q 22.3125 -1.421875 17.546875 -0.640625 
Q 12.796875 0.140625 7.71875 1.703125 
L 7.71875 11.625 
Q 12.109375 9.234375 16.796875 8.0625 
Q 21.484375 6.890625 26.703125 6.890625 
Q 35.15625 6.890625 40.078125 11.328125 
Q 45.015625 15.765625 45.015625 23.390625 
Q 45.015625 31 40.078125 35.4375 
Q 35.15625 39.890625 26.703125 39.890625 
Q 22.75 39.890625 18.8125 39.015625 
Q 14.890625 38.140625 10.796875 36.28125 
z
" id="DejaVuSans-53"/>
     </defs>
     <g style="fill:#262626;" transform="translate(77.34 69.944687)scale(0.1 -0.1)">
      <use transform="translate(0 0.78125)" xlink:href="#DejaVuSans-Oblique-109"/>
      <use transform="translate(116.894531 0.78125)" xlink:href="#DejaVuSans-61"/>
      <use transform="translate(239.648438 0.78125)" xlink:href="#DejaVuSans-8722"/>
      <use transform="translate(342.919922 0.78125)" xlink:href="#DejaVuSans-48"/>
      <use transform="translate(406.542969 0.78125)" xlink:href="#DejaVuSans-46"/>
      <use transform="translate(438.330078 0.78125)" xlink:href="#DejaVuSans-48"/>
      <use transform="translate(501.953125 0.78125)" xlink:href="#DejaVuSans-53"/>
     </g>
    </g>
    <g id="line2d_37">
     <path d="M 49.34 80.59 
L 69.34 80.59 
" style="fill:none;stroke:#ffa95b;stroke-linecap:round;stroke-width:1.75;"/>
    </g>
    <g id="line2d_38"/>
    <g id="text_21">
     <!-- $m = 0.00$ -->
     <g style="fill:#262626;" transform="translate(77.34 84.09)scale(0.1 -0.1)">
      <use transform="translate(0 0.78125)" xlink:href="#DejaVuSans-Oblique-109"/>
      <use transform="translate(116.894531 0.78125)" xlink:href="#DejaVuSans-61"/>
      <use transform="translate(220.166016 0.78125)" xlink:href="#DejaVuSans-48"/>
      <use transform="translate(283.789062 0.78125)" xlink:href="#DejaVuSans-46"/>
      <use transform="translate(315.576172 0.78125)" xlink:href="#DejaVuSans-48"/>
      <use transform="translate(379.199219 0.78125)" xlink:href="#DejaVuSans-48"/>
     </g>
    </g>
    <g id="line2d_39">
     <path d="M 49.34 94.735312 
L 69.34 94.735312 
" style="fill:none;stroke:#e2d176;stroke-linecap:round;stroke-width:1.75;"/>
    </g>
    <g id="line2d_40"/>
    <g id="text_22">
     <!-- $m = 0.10$ -->
     <defs>
      <path d="M 12.40625 8.296875 
L 28.515625 8.296875 
L 28.515625 63.921875 
L 10.984375 60.40625 
L 10.984375 69.390625 
L 28.421875 72.90625 
L 38.28125 72.90625 
L 38.28125 8.296875 
L 54.390625 8.296875 
L 54.390625 0 
L 12.40625 0 
z
" id="DejaVuSans-49"/>
     </defs>
     <g style="fill:#262626;" transform="translate(77.34 98.235312)scale(0.1 -0.1)">
      <use transform="translate(0 0.78125)" xlink:href="#DejaVuSans-Oblique-109"/>
      <use transform="translate(116.894531 0.78125)" xlink:href="#DejaVuSans-61"/>
      <use transform="translate(220.166016 0.78125)" xlink:href="#DejaVuSans-48"/>
      <use transform="translate(283.789062 0.78125)" xlink:href="#DejaVuSans-46"/>
      <use transform="translate(315.576172 0.78125)" xlink:href="#DejaVuSans-49"/>
      <use transform="translate(379.199219 0.78125)" xlink:href="#DejaVuSans-48"/>
     </g>
    </g>
    <g id="line2d_41">
     <path d="M 49.34 108.880625 
L 69.34 108.880625 
" style="fill:none;stroke:#bbee91;stroke-linecap:round;stroke-width:1.75;"/>
    </g>
    <g id="line2d_42"/>
    <g id="text_23">
     <!-- $m = 0.30$ -->
     <defs>
      <path d="M 40.578125 39.3125 
Q 47.65625 37.796875 51.625 33 
Q 55.609375 28.21875 55.609375 21.1875 
Q 55.609375 10.40625 48.1875 4.484375 
Q 40.765625 -1.421875 27.09375 -1.421875 
Q 22.515625 -1.421875 17.65625 -0.515625 
Q 12.796875 0.390625 7.625 2.203125 
L 7.625 11.71875 
Q 11.71875 9.328125 16.59375 8.109375 
Q 21.484375 6.890625 26.8125 6.890625 
Q 36.078125 6.890625 40.9375 10.546875 
Q 45.796875 14.203125 45.796875 21.1875 
Q 45.796875 27.640625 41.28125 31.265625 
Q 36.765625 34.90625 28.71875 34.90625 
L 20.21875 34.90625 
L 20.21875 43.015625 
L 29.109375 43.015625 
Q 36.375 43.015625 40.234375 45.921875 
Q 44.09375 48.828125 44.09375 54.296875 
Q 44.09375 59.90625 40.109375 62.90625 
Q 36.140625 65.921875 28.71875 65.921875 
Q 24.65625 65.921875 20.015625 65.03125 
Q 15.375 64.15625 9.8125 62.3125 
L 9.8125 71.09375 
Q 15.4375 72.65625 20.34375 73.4375 
Q 25.25 74.21875 29.59375 74.21875 
Q 40.828125 74.21875 47.359375 69.109375 
Q 53.90625 64.015625 53.90625 55.328125 
Q 53.90625 49.265625 50.4375 45.09375 
Q 46.96875 40.921875 40.578125 39.3125 
z
" id="DejaVuSans-51"/>
     </defs>
     <g style="fill:#262626;" transform="translate(77.34 112.380625)scale(0.1 -0.1)">
      <use transform="translate(0 0.78125)" xlink:href="#DejaVuSans-Oblique-109"/>
      <use transform="translate(116.894531 0.78125)" xlink:href="#DejaVuSans-61"/>
      <use transform="translate(220.166016 0.78125)" xlink:href="#DejaVuSans-48"/>
      <use transform="translate(283.789062 0.78125)" xlink:href="#DejaVuSans-46"/>
      <use transform="translate(315.576172 0.78125)" xlink:href="#DejaVuSans-51"/>
      <use transform="translate(379.199219 0.78125)" xlink:href="#DejaVuSans-48"/>
     </g>
    </g>
    <g id="line2d_43">
     <path d="M 49.34 123.025937 
L 69.34 123.025937 
" style="fill:none;stroke:#92fda9;stroke-linecap:round;stroke-width:1.75;"/>
    </g>
    <g id="line2d_44"/>
    <g id="text_24">
     <!-- $m = 0.60$ -->
     <defs>
      <path d="M 33.015625 40.375 
Q 26.375 40.375 22.484375 35.828125 
Q 18.609375 31.296875 18.609375 23.390625 
Q 18.609375 15.53125 22.484375 10.953125 
Q 26.375 6.390625 33.015625 6.390625 
Q 39.65625 6.390625 43.53125 10.953125 
Q 47.40625 15.53125 47.40625 23.390625 
Q 47.40625 31.296875 43.53125 35.828125 
Q 39.65625 40.375 33.015625 40.375 
z
M 52.59375 71.296875 
L 52.59375 62.3125 
Q 48.875 64.0625 45.09375 64.984375 
Q 41.3125 65.921875 37.59375 65.921875 
Q 27.828125 65.921875 22.671875 59.328125 
Q 17.53125 52.734375 16.796875 39.40625 
Q 19.671875 43.65625 24.015625 45.921875 
Q 28.375 48.1875 33.59375 48.1875 
Q 44.578125 48.1875 50.953125 41.515625 
Q 57.328125 34.859375 57.328125 23.390625 
Q 57.328125 12.15625 50.6875 5.359375 
Q 44.046875 -1.421875 33.015625 -1.421875 
Q 20.359375 -1.421875 13.671875 8.265625 
Q 6.984375 17.96875 6.984375 36.375 
Q 6.984375 53.65625 15.1875 63.9375 
Q 23.390625 74.21875 37.203125 74.21875 
Q 40.921875 74.21875 44.703125 73.484375 
Q 48.484375 72.75 52.59375 71.296875 
z
" id="DejaVuSans-54"/>
     </defs>
     <g style="fill:#262626;" transform="translate(77.34 126.525937)scale(0.1 -0.1)">
      <use transform="translate(0 0.78125)" xlink:href="#DejaVuSans-Oblique-109"/>
      <use transform="translate(116.894531 0.78125)" xlink:href="#DejaVuSans-61"/>
      <use transform="translate(220.166016 0.78125)" xlink:href="#DejaVuSans-48"/>
      <use transform="translate(283.789062 0.78125)" xlink:href="#DejaVuSans-46"/>
      <use transform="translate(315.576172 0.78125)" xlink:href="#DejaVuSans-54"/>
      <use transform="translate(379.199219 0.78125)" xlink:href="#DejaVuSans-48"/>
     </g>
    </g>
    <g id="line2d_45">
     <path d="M 49.34 137.17125 
L 69.34 137.17125 
" style="fill:none;stroke:#6dfdbf;stroke-linecap:round;stroke-width:1.75;"/>
    </g>
    <g id="line2d_46"/>
    <g id="text_25">
     <!-- $m = 0.80$ -->
     <g style="fill:#262626;" transform="translate(77.34 140.67125)scale(0.1 -0.1)">
      <use transform="translate(0 0.78125)" xlink:href="#DejaVuSans-Oblique-109"/>
      <use transform="translate(116.894531 0.78125)" xlink:href="#DejaVuSans-61"/>
      <use transform="translate(220.166016 0.78125)" xlink:href="#DejaVuSans-48"/>
      <use transform="translate(283.789062 0.78125)" xlink:href="#DejaVuSans-46"/>
      <use transform="translate(315.544922 0.78125)" xlink:href="#DejaVuSans-56"/>
      <use transform="translate(379.167969 0.78125)" xlink:href="#DejaVuSans-48"/>
     </g>
    </g>
    <g id="line2d_47">
     <path d="M 49.34 151.316563 
L 69.34 151.316563 
" style="fill:none;stroke:#44eed2;stroke-linecap:round;stroke-width:1.75;"/>
    </g>
    <g id="line2d_48"/>
    <g id="text_26">
     <!-- $m = 1.00$ -->
     <g style="fill:#262626;" transform="translate(77.34 154.816563)scale(0.1 -0.1)">
      <use transform="translate(0 0.78125)" xlink:href="#DejaVuSans-Oblique-109"/>
      <use transform="translate(116.894531 0.78125)" xlink:href="#DejaVuSans-61"/>
      <use transform="translate(220.166016 0.78125)" xlink:href="#DejaVuSans-49"/>
      <use transform="translate(283.789062 0.78125)" xlink:href="#DejaVuSans-46"/>
      <use transform="translate(315.576172 0.78125)" xlink:href="#DejaVuSans-48"/>
      <use transform="translate(379.199219 0.78125)" xlink:href="#DejaVuSans-48"/>
     </g>
    </g>
    <g id="line2d_49">
     <path d="M 49.34 165.461875 
L 69.34 165.461875 
" style="fill:none;stroke:#1dd1e2;stroke-linecap:round;stroke-width:1.75;"/>
    </g>
    <g id="line2d_50"/>
    <g id="text_27">
     <!-- $m = 1.20$ -->
     <defs>
      <path d="M 19.1875 8.296875 
L 53.609375 8.296875 
L 53.609375 0 
L 7.328125 0 
L 7.328125 8.296875 
Q 12.9375 14.109375 22.625 23.890625 
Q 32.328125 33.6875 34.8125 36.53125 
Q 39.546875 41.84375 41.421875 45.53125 
Q 43.3125 49.21875 43.3125 52.78125 
Q 43.3125 58.59375 39.234375 62.25 
Q 35.15625 65.921875 28.609375 65.921875 
Q 23.96875 65.921875 18.8125 64.3125 
Q 13.671875 62.703125 7.8125 59.421875 
L 7.8125 69.390625 
Q 13.765625 71.78125 18.9375 73 
Q 24.125 74.21875 28.421875 74.21875 
Q 39.75 74.21875 46.484375 68.546875 
Q 53.21875 62.890625 53.21875 53.421875 
Q 53.21875 48.921875 51.53125 44.890625 
Q 49.859375 40.875 45.40625 35.40625 
Q 44.1875 33.984375 37.640625 27.21875 
Q 31.109375 20.453125 19.1875 8.296875 
z
" id="DejaVuSans-50"/>
     </defs>
     <g style="fill:#262626;" transform="translate(77.34 168.961875)scale(0.1 -0.1)">
      <use transform="translate(0 0.78125)" xlink:href="#DejaVuSans-Oblique-109"/>
      <use transform="translate(116.894531 0.78125)" xlink:href="#DejaVuSans-61"/>
      <use transform="translate(220.166016 0.78125)" xlink:href="#DejaVuSans-49"/>
      <use transform="translate(283.789062 0.78125)" xlink:href="#DejaVuSans-46"/>
      <use transform="translate(315.498047 0.78125)" xlink:href="#DejaVuSans-50"/>
      <use transform="translate(379.121094 0.78125)" xlink:href="#DejaVuSans-48"/>
     </g>
    </g>
    <g id="line2d_51">
     <path d="M 49.34 179.607188 
L 69.34 179.607188 
" style="fill:none;stroke:#09a9ee;stroke-linecap:round;stroke-width:1.75;"/>
    </g>
    <g id="line2d_52"/>
    <g id="text_28">
     <!-- $m = 1.40$ -->
     <defs>
      <path d="M 37.796875 64.3125 
L 12.890625 25.390625 
L 37.796875 25.390625 
z
M 35.203125 72.90625 
L 47.609375 72.90625 
L 47.609375 25.390625 
L 58.015625 25.390625 
L 58.015625 17.1875 
L 47.609375 17.1875 
L 47.609375 0 
L 37.796875 0 
L 37.796875 17.1875 
L 4.890625 17.1875 
L 4.890625 26.703125 
z
" id="DejaVuSans-52"/>
     </defs>
     <g style="fill:#262626;" transform="translate(77.34 183.107188)scale(0.1 -0.1)">
      <use transform="translate(0 0.78125)" xlink:href="#DejaVuSans-Oblique-109"/>
      <use transform="translate(116.894531 0.78125)" xlink:href="#DejaVuSans-61"/>
      <use transform="translate(220.166016 0.78125)" xlink:href="#DejaVuSans-49"/>
      <use transform="translate(283.789062 0.78125)" xlink:href="#DejaVuSans-46"/>
      <use transform="translate(315.576172 0.78125)" xlink:href="#DejaVuSans-52"/>
      <use transform="translate(379.199219 0.78125)" xlink:href="#DejaVuSans-48"/>
     </g>
    </g>
    <g id="line2d_53">
     <path d="M 49.34 193.7525 
L 69.34 193.7525 
" style="fill:none;stroke:#3176f8;stroke-linecap:round;stroke-width:1.75;"/>
    </g>
    <g id="line2d_54"/>
    <g id="text_29">
     <!-- $m = 1.60$ -->
     <g style="fill:#262626;" transform="translate(77.34 197.2525)scale(0.1 -0.1)">
      <use transform="translate(0 0.78125)" xlink:href="#DejaVuSans-Oblique-109"/>
      <use transform="translate(116.894531 0.78125)" xlink:href="#DejaVuSans-61"/>
      <use transform="translate(220.166016 0.78125)" xlink:href="#DejaVuSans-49"/>
      <use transform="translate(283.789062 0.78125)" xlink:href="#DejaVuSans-46"/>
      <use transform="translate(315.576172 0.78125)" xlink:href="#DejaVuSans-54"/>
      <use transform="translate(379.199219 0.78125)" xlink:href="#DejaVuSans-48"/>
     </g>
    </g>
    <g id="line2d_55">
     <path d="M 49.34 207.897812 
L 69.34 207.897812 
" style="fill:none;stroke:#5a3bfd;stroke-linecap:round;stroke-width:1.75;"/>
    </g>
    <g id="line2d_56"/>
    <g id="text_30">
     <!-- $m = 1.80$ -->
     <g style="fill:#262626;" transform="translate(77.34 211.397812)scale(0.1 -0.1)">
      <use transform="translate(0 0.78125)" xlink:href="#DejaVuSans-Oblique-109"/>
      <use transform="translate(116.894531 0.78125)" xlink:href="#DejaVuSans-61"/>
      <use transform="translate(220.166016 0.78125)" xlink:href="#DejaVuSans-49"/>
      <use transform="translate(283.789062 0.78125)" xlink:href="#DejaVuSans-46"/>
      <use transform="translate(315.544922 0.78125)" xlink:href="#DejaVuSans-56"/>
      <use transform="translate(379.167969 0.78125)" xlink:href="#DejaVuSans-48"/>
     </g>
    </g>
    <g id="line2d_57">
     <path d="M 49.34 222.043125 
L 69.34 222.043125 
" style="fill:none;stroke:#8000ff;stroke-linecap:round;stroke-width:1.75;"/>
    </g>
    <g id="line2d_58"/>
    <g id="text_31">
     <!-- $m = 2.00$ -->
     <g style="fill:#262626;" transform="translate(77.34 225.543125)scale(0.1 -0.1)">
      <use transform="translate(0 0.78125)" xlink:href="#DejaVuSans-Oblique-109"/>
      <use transform="translate(116.894531 0.78125)" xlink:href="#DejaVuSans-61"/>
      <use transform="translate(220.166016 0.78125)" xlink:href="#DejaVuSans-50"/>
      <use transform="translate(283.789062 0.78125)" xlink:href="#DejaVuSans-46"/>
      <use transform="translate(315.576172 0.78125)" xlink:href="#DejaVuSans-48"/>
      <use transform="translate(379.199219 0.78125)" xlink:href="#DejaVuSans-48"/>
     </g>
    </g>
   </g>
   <g id="line2d_59">
    <path clip-path="url(#p221931d06b)" d="M 64.197273 336.632011 
L 108.289285 333.638882 
L 149.467345 330.645753 
L 187.772828 327.652624 
L 223.270149 324.659495 
L 256.042834 321.666366 
L 286.189916 318.673237 
L 313.822668 315.680108 
L 339.061645 312.686979 
L 362.034052 309.69385 
L 382.871393 306.700721 
L 401.707422 303.707592 
L 418.676349 300.714463 
L 433.911302 297.721334 
L 447.543019 294.728205 
L 459.698761 291.735076 
L 470.501413 288.741947 
L 480.068772 285.748818 
L 488.512996 282.755689 
L 495.940197 279.76256 
L 502.450166 276.769431 
L 508.136217 273.776302 
L 513.085123 270.783173 
L 517.37715 267.790044 
L 521.086161 264.796915 
L 524.279778 261.803786 
L 527.019608 258.810657 
L 529.361501 255.817528 
L 531.355839 252.824399 
L 533.047859 249.83127 
L 534.477983 246.838141 
L 535.682154 243.845012 
L 536.692191 240.851883 
L 537.536118 237.858754 
L 538.238511 234.865625 
L 538.820812 231.872496 
L 539.301646 228.879367 
L 539.697114 225.886238 
L 540.021065 222.893109 
L 540.285362 219.89998 
L 540.500112 216.906851 
L 540.673889 213.913722 
L 540.813932 210.920593 
L 540.926321 207.927464 
L 541.01614 204.934335 
L 541.087621 201.941206 
L 541.144267 198.948077 
L 541.188967 195.954948 
L 541.22409 192.961819 
L 541.251568 189.96869 
L 541.272974 186.97556 
L 541.289577 183.982431 
L 541.302399 180.989302 
L 541.312257 177.996173 
L 541.319803 175.003044 
L 541.325554 172.009915 
L 541.329918 169.016786 
L 541.333214 166.023657 
L 541.335692 163.030528 
L 541.337548 160.037399 
L 541.338931 157.04427 
L 541.339956 154.051141 
L 541.340714 151.058012 
L 541.341271 148.064883 
L 541.341678 145.071754 
L 541.341975 142.078625 
L 541.342191 139.085496 
L 541.342346 136.092367 
L 541.342458 133.099238 
L 541.342537 130.106109 
L 541.342594 127.11298 
L 541.342634 124.119851 
L 541.342663 121.126722 
L 541.342683 118.133593 
L 541.342697 115.140464 
L 541.342706 112.147335 
L 541.342713 109.154206 
L 541.342718 106.161077 
L 541.342721 103.167948 
L 541.342723 100.174819 
L 541.342724 97.18169 
L 541.342725 94.188561 
L 541.342726 91.195432 
L 541.342726 88.202303 
L 541.342727 85.209174 
L 541.342727 82.216045 
L 541.342727 79.222916 
L 541.342727 76.229787 
L 541.342727 73.236658 
L 541.342727 70.243529 
L 541.342727 67.2504 
L 541.342727 64.257271 
L 541.342727 61.264142 
L 541.342727 58.271013 
L 541.342727 55.277884 
L 541.342727 52.284755 
L 541.342727 49.291626 
L 541.342727 46.298497 
L 541.342727 43.305368 
L 541.342727 40.312239 
" style="fill:none;stroke:#3176f8;stroke-linecap:round;stroke-width:1.75;"/>
   </g>
   <g id="line2d_60">
    <path clip-path="url(#p221931d06b)" d="M 64.197273 336.632011 
L 107.292951 333.638882 
L 147.624825 330.645753 
L 185.229194 327.652624 
L 220.1628 324.659495 
L 252.499569 321.666366 
L 282.327597 318.673237 
L 309.746397 315.680108 
L 334.864378 312.686979 
L 357.796576 309.69385 
L 378.662607 306.700721 
L 397.584843 303.707592 
L 414.6868 300.714463 
L 430.091731 297.721334 
L 443.921398 294.728205 
L 456.295032 291.735076 
L 467.328452 288.741947 
L 477.133339 285.748818 
L 485.816656 282.755689 
L 493.480187 279.76256 
L 500.220213 276.769431 
L 506.127273 273.776302 
L 511.286039 270.783173 
L 515.77527 267.790044 
L 519.667836 264.796915 
L 523.030815 261.803786 
L 525.92564 258.810657 
L 528.408296 255.817528 
L 530.529547 252.824399 
L 532.335202 249.83127 
L 533.866398 246.838141 
L 535.159894 243.845012 
L 536.248385 240.851883 
L 537.160806 237.858754 
L 537.922644 234.865625 
L 538.556243 231.872496 
L 539.081095 228.879367 
L 539.514124 225.886238 
L 539.869954 222.893109 
L 540.16116 219.89998 
L 540.398504 216.906851 
L 540.591153 213.913722 
L 540.746875 210.920593 
L 540.872225 207.927464 
L 540.972702 204.934335 
L 541.052903 201.941206 
L 541.116647 198.948077 
L 541.167096 195.954948 
L 541.206851 192.961819 
L 541.238044 189.96869 
L 541.262414 186.97556 
L 541.281369 183.982431 
L 541.296048 180.989302 
L 541.307367 177.996173 
L 541.316055 175.003044 
L 541.322695 172.009915 
L 541.327746 169.016786 
L 541.331573 166.023657 
L 541.334458 163.030528 
L 541.336623 160.037399 
L 541.338242 157.04427 
L 541.339445 154.051141 
L 541.340337 151.058012 
L 541.340994 148.064883 
L 541.341476 145.071754 
L 541.341828 142.078625 
L 541.342084 139.085496 
L 541.342269 136.092367 
L 541.342402 133.099238 
L 541.342498 130.106109 
L 541.342566 127.11298 
L 541.342615 124.119851 
L 541.342649 121.126722 
L 541.342673 118.133593 
L 541.34269 115.140464 
L 541.342702 112.147335 
L 541.34271 109.154206 
L 541.342715 106.161077 
L 541.342719 103.167948 
L 541.342722 100.174819 
L 541.342724 97.18169 
L 541.342725 94.188561 
L 541.342726 91.195432 
L 541.342726 88.202303 
L 541.342727 85.209174 
L 541.342727 82.216045 
L 541.342727 79.222916 
L 541.342727 76.229787 
L 541.342727 73.236658 
L 541.342727 70.243529 
L 541.342727 67.2504 
L 541.342727 64.257271 
L 541.342727 61.264142 
L 541.342727 58.271013 
L 541.342727 55.277884 
L 541.342727 52.284755 
L 541.342727 49.291626 
L 541.342727 46.298497 
L 541.342727 43.305368 
L 541.342727 40.312239 
" style="fill:none;stroke:#09a9ee;stroke-linecap:round;stroke-width:1.75;"/>
   </g>
   <g id="line2d_61">
    <path clip-path="url(#p221931d06b)" d="M 64.197273 336.632011 
L 106.081821 333.638882 
L 145.380218 330.645753 
L 182.123123 327.652624 
L 216.358709 324.659495 
L 248.150115 321.666366 
L 277.573076 318.673237 
L 304.713723 315.680108 
L 329.666547 312.686979 
L 352.532539 309.69385 
L 373.417483 306.700721 
L 392.430405 303.707592 
L 409.68218 300.714463 
L 425.284282 297.721334 
L 439.347671 294.728205 
L 451.981824 291.735076 
L 463.293886 288.741947 
L 473.387951 285.748818 
L 482.364456 282.755689 
L 490.319683 279.76256 
L 497.345369 276.769431 
L 503.528405 273.776302 
L 508.950629 270.783173 
L 513.688695 267.790044 
L 517.814016 264.796915 
L 521.392776 261.803786 
L 524.485992 258.810657 
L 527.149634 255.817528 
L 529.434782 252.824399 
L 531.38782 249.83127 
L 533.050659 246.838141 
L 534.460981 243.845012 
L 535.652498 240.851883 
L 536.655224 237.858754 
L 537.495749 234.865625 
L 538.197514 231.872496 
L 538.781082 228.879367 
L 539.264405 225.886238 
L 539.663078 222.893109 
L 539.990583 219.89998 
L 540.258517 216.906851 
L 540.476807 213.913722 
L 540.65391 210.920593 
L 540.796995 207.927464 
L 540.912108 204.934335 
L 541.004324 201.941206 
L 541.077883 198.948077 
L 541.136307 195.954948 
L 541.182511 192.961819 
L 541.218891 189.96869 
L 541.247412 186.97556 
L 541.269674 183.982431 
L 541.286974 180.989302 
L 541.300358 177.996173 
L 541.310667 175.003044 
L 541.318573 172.009915 
L 541.324607 169.016786 
L 541.329193 166.023657 
L 541.332663 163.030528 
L 541.335276 160.037399 
L 541.337234 157.04427 
L 541.338696 154.051141 
L 541.339782 151.058012 
L 541.340585 148.064883 
L 541.341176 145.071754 
L 541.341609 142.078625 
L 541.341925 139.085496 
L 541.342154 136.092367 
L 541.34232 133.099238 
L 541.342439 130.106109 
L 541.342524 127.11298 
L 541.342585 124.119851 
L 541.342628 121.126722 
L 541.342658 118.133593 
L 541.342679 115.140464 
L 541.342694 112.147335 
L 541.342705 109.154206 
L 541.342712 106.161077 
L 541.342717 103.167948 
L 541.34272 100.174819 
L 541.342723 97.18169 
L 541.342724 94.188561 
L 541.342725 91.195432 
L 541.342726 88.202303 
L 541.342726 85.209174 
L 541.342727 82.216045 
L 541.342727 79.222916 
L 541.342727 76.229787 
L 541.342727 73.236658 
L 541.342727 70.243529 
L 541.342727 67.2504 
L 541.342727 64.257271 
L 541.342727 61.264142 
L 541.342727 58.271013 
L 541.342727 55.277884 
L 541.342727 52.284755 
L 541.342727 49.291626 
L 541.342727 46.298497 
L 541.342727 43.305368 
L 541.342727 40.312239 
" style="fill:none;stroke:#1dd1e2;stroke-linecap:round;stroke-width:1.75;"/>
   </g>
   <g id="line2d_62">
    <path clip-path="url(#p221931d06b)" d="M 64.197273 336.632011 
L 104.575932 333.638882 
L 142.581923 330.645753 
L 178.239654 327.652624 
L 211.58774 324.659495 
L 242.677212 321.666366 
L 271.569813 318.673237 
L 298.3364 315.680108 
L 323.055445 312.686979 
L 345.811622 309.69385 
L 366.694489 306.700721 
L 385.79727 303.707592 
L 403.21571 300.714463 
L 419.047037 297.721334 
L 433.389002 294.728205 
L 446.339013 291.735076 
L 457.993351 288.741947 
L 468.44648 285.748818 
L 477.790438 282.755689 
L 486.11431 279.76256 
L 493.503788 276.769431 
L 500.040801 273.776302 
L 505.803232 270.783173 
L 510.864697 267.790044 
L 515.294395 264.796915 
L 519.157023 261.803786 
L 522.512745 258.810657 
L 525.417219 255.817528 
L 527.92166 252.824399 
L 530.072958 249.83127 
L 531.913819 246.838141 
L 533.482943 243.845012 
L 534.815218 240.851883 
L 535.94194 237.858754 
L 536.891039 234.865625 
L 537.687316 231.872496 
L 538.352684 228.879367 
L 538.906404 225.886238 
L 539.365325 222.893109 
L 539.744109 219.89998 
L 540.055452 216.906851 
L 540.310292 213.913722 
L 540.518008 210.920593 
L 540.686597 207.927464 
L 540.822848 204.934335 
L 540.932492 201.941206 
L 541.020346 198.948077 
L 541.090436 195.954948 
L 541.146111 192.961819 
L 541.190142 189.96869 
L 541.224813 186.97556 
L 541.251991 183.982431 
L 541.273203 180.989302 
L 541.289684 177.996173 
L 541.302432 175.003044 
L 541.312249 172.009915 
L 541.319775 169.016786 
L 541.325517 166.023657 
L 541.32988 163.030528 
L 541.333179 160.037399 
L 541.335662 157.04427 
L 541.337523 154.051141 
L 541.33891 151.058012 
L 541.33994 148.064883 
L 541.340702 145.071754 
L 541.341262 142.078625 
L 541.341672 139.085496 
L 541.34197 136.092367 
L 541.342187 133.099238 
L 541.342344 130.106109 
L 541.342456 127.11298 
L 541.342536 124.119851 
L 541.342593 121.126722 
L 541.342634 118.133593 
L 541.342662 115.140464 
L 541.342682 112.147335 
L 541.342696 109.154206 
L 541.342706 106.161077 
L 541.342713 103.167948 
L 541.342718 100.174819 
L 541.342721 97.18169 
L 541.342723 94.188561 
L 541.342724 91.195432 
L 541.342725 88.202303 
L 541.342726 85.209174 
L 541.342726 82.216045 
L 541.342727 79.222916 
L 541.342727 76.229787 
L 541.342727 73.236658 
L 541.342727 70.243529 
L 541.342727 67.2504 
L 541.342727 64.257271 
L 541.342727 61.264142 
L 541.342727 58.271013 
L 541.342727 55.277884 
L 541.342727 52.284755 
L 541.342727 49.291626 
L 541.342727 46.298497 
L 541.342727 43.305368 
L 541.342727 40.312239 
" style="fill:none;stroke:#44eed2;stroke-linecap:round;stroke-width:1.75;"/>
   </g>
   <g id="line2d_63">
    <path clip-path="url(#p221931d06b)" d="M 64.197273 336.632011 
L 102.648253 333.638882 
L 138.987935 330.645753 
L 173.233865 327.652624 
L 205.414092 324.659495 
L 235.566124 321.666366 
L 263.735929 318.673237 
L 289.976958 315.680108 
L 314.349218 312.686979 
L 336.918354 309.69385 
L 357.754778 306.700721 
L 376.932819 303.707592 
L 394.529903 300.714463 
L 410.625773 297.721334 
L 425.301736 294.728205 
L 438.639956 291.735076 
L 450.722781 288.741947 
L 461.632122 285.748818 
L 471.448877 282.755689 
L 480.252402 279.76256 
L 488.120042 276.769431 
L 495.126712 273.776302 
L 501.344537 270.783173 
L 506.842547 267.790044 
L 511.686431 264.796915 
L 515.938342 261.803786 
L 519.656765 258.810657 
L 522.896424 255.817528 
L 525.70825 252.824399 
L 528.139385 249.83127 
L 530.233231 246.838141 
L 532.029532 243.845012 
L 533.564492 240.851883 
L 534.870911 237.858754 
L 535.978354 234.865625 
L 536.913328 231.872496 
L 537.699473 228.879367 
L 538.357765 225.886238 
L 538.906714 222.893109 
L 539.362576 219.89998 
L 539.739547 216.906851 
L 540.049965 213.913722 
L 540.304492 210.920593 
L 540.512301 207.927464 
L 540.681237 204.934335 
L 540.817979 201.941206 
L 540.928181 198.948077 
L 541.016607 195.954948 
L 541.087247 192.961819 
L 541.143431 189.96869 
L 541.187919 186.97556 
L 541.222989 183.982431 
L 541.250512 180.989302 
L 541.272014 177.996173 
L 541.288738 175.003044 
L 541.301685 172.009915 
L 541.311664 169.016786 
L 541.31932 166.023657 
L 541.325167 163.030528 
L 541.329612 160.037399 
L 541.332975 157.04427 
L 541.335508 154.051141 
L 541.337407 151.058012 
L 541.338824 148.064883 
L 541.339877 145.071754 
L 541.340655 142.078625 
L 541.341228 139.085496 
L 541.341647 136.092367 
L 541.341953 133.099238 
L 541.342174 130.106109 
L 541.342334 127.11298 
L 541.342449 124.119851 
L 541.342532 121.126722 
L 541.34259 118.133593 
L 541.342632 115.140464 
L 541.342661 112.147335 
L 541.342681 109.154206 
L 541.342696 106.161077 
L 541.342706 103.167948 
L 541.342713 100.174819 
L 541.342717 97.18169 
L 541.342721 94.188561 
L 541.342723 91.195432 
L 541.342724 88.202303 
L 541.342725 85.209174 
L 541.342726 82.216045 
L 541.342726 79.222916 
L 541.342727 76.229787 
L 541.342727 73.236658 
L 541.342727 70.243529 
L 541.342727 67.2504 
L 541.342727 64.257271 
L 541.342727 61.264142 
L 541.342727 58.271013 
L 541.342727 55.277884 
L 541.342727 52.284755 
L 541.342727 49.291626 
L 541.342727 46.298497 
L 541.342727 43.305368 
L 541.342727 40.312239 
" style="fill:none;stroke:#6dfdbf;stroke-linecap:round;stroke-width:1.75;"/>
   </g>
   <g id="line2d_64">
    <path clip-path="url(#p221931d06b)" d="M 64.197273 336.632011 
L 100.081743 333.638882 
L 134.182328 330.645753 
L 166.50923 327.652624 
L 197.079066 324.659495 
L 225.914538 321.666366 
L 253.044093 318.673237 
L 278.501579 315.680108 
L 302.32588 312.686979 
L 324.560539 309.69385 
L 345.253358 306.700721 
L 364.455978 303.707592 
L 382.223447 300.714463 
L 398.613758 297.721334 
L 413.687389 294.728205 
L 427.506818 291.735076 
L 440.136041 288.741947 
L 451.640087 285.748818 
L 462.084536 282.755689 
L 471.53505 279.76256 
L 480.056921 276.769431 
L 487.714638 273.776302 
L 494.571482 270.783173 
L 500.689159 267.790044 
L 506.127461 264.796915 
L 510.943974 261.803786 
L 515.193824 258.810657 
L 518.929466 255.817528 
L 522.200524 252.824399 
L 525.053667 249.83127 
L 527.532531 246.838141 
L 529.677685 243.845012 
L 531.526631 240.851883 
L 533.113836 237.858754 
L 534.470807 234.865625 
L 535.626176 231.872496 
L 536.605824 228.879367 
L 537.433013 225.886238 
L 538.128535 222.893109 
L 538.710876 219.89998 
L 539.196377 216.906851 
L 539.599409 213.913722 
L 539.932538 210.920593 
L 540.206695 207.927464 
L 540.431336 204.934335 
L 540.614598 201.941206 
L 540.763444 198.948077 
L 540.883803 195.954948 
L 540.980694 192.961819 
L 541.058345 189.96869 
L 541.120296 186.97556 
L 541.169501 183.982431 
L 541.208404 180.989302 
L 541.239022 177.996173 
L 541.263011 175.003044 
L 541.28172 172.009915 
L 541.296243 169.016786 
L 541.307466 166.023657 
L 541.316098 163.030528 
L 541.322706 160.037399 
L 541.327742 157.04427 
L 541.331562 154.051141 
L 541.334445 151.058012 
L 541.336612 148.064883 
L 541.338233 145.071754 
L 541.339439 142.078625 
L 541.340332 139.085496 
L 541.340991 136.092367 
L 541.341474 133.099238 
L 541.341827 130.106109 
L 541.342084 127.11298 
L 541.342269 124.119851 
L 541.342403 121.126722 
L 541.342499 118.133593 
L 541.342567 115.140464 
L 541.342615 112.147335 
L 541.342649 109.154206 
L 541.342673 106.161077 
L 541.34269 103.167948 
L 541.342702 100.174819 
L 541.34271 97.18169 
L 541.342716 94.188561 
L 541.342719 91.195432 
L 541.342722 88.202303 
L 541.342724 85.209174 
L 541.342725 82.216045 
L 541.342726 79.222916 
L 541.342726 76.229787 
L 541.342727 73.236658 
L 541.342727 70.243529 
L 541.342727 67.2504 
L 541.342727 64.257271 
L 541.342727 61.264142 
L 541.342727 58.271013 
L 541.342727 55.277884 
L 541.342727 52.284755 
L 541.342727 49.291626 
L 541.342727 46.298497 
L 541.342727 43.305368 
L 541.342727 40.312239 
" style="fill:none;stroke:#92fda9;stroke-linecap:round;stroke-width:1.75;"/>
   </g>
   <g id="line2d_65">
    <path clip-path="url(#p221931d06b)" d="M 64.197273 336.632011 
L 94.010047 333.638882 
L 122.721476 330.645753 
L 150.331066 327.652624 
L 176.838407 324.659495 
L 202.243559 321.666366 
L 226.547434 318.673237 
L 249.752146 315.680108 
L 271.861341 312.686979 
L 292.880503 309.69385 
L 312.817222 306.700721 
L 331.68143 303.707592 
L 349.485592 300.714463 
L 366.244859 297.721334 
L 381.977161 294.728205 
L 396.703264 291.735076 
L 410.446762 288.741947 
L 423.234021 285.748818 
L 435.094078 282.755689 
L 446.058477 279.76256 
L 456.161069 276.769431 
L 465.43777 273.776302 
L 473.926278 270.783173 
L 481.665764 267.790044 
L 488.69654 264.796915 
L 495.059719 261.803786 
L 500.796856 258.810657 
L 505.949605 255.817528 
L 510.559373 252.824399 
L 514.666999 249.83127 
L 518.312447 246.838141 
L 521.534536 243.845012 
L 524.370691 240.851883 
L 526.856735 237.858754 
L 529.026716 234.865625 
L 530.912771 231.872496 
L 532.545026 228.879367 
L 533.951532 225.886238 
L 535.158239 222.893109 
L 536.188991 219.89998 
L 537.065562 216.906851 
L 537.807707 213.913722 
L 538.433235 210.920593 
L 538.958107 207.927464 
L 539.396532 204.934335 
L 539.76109 201.941206 
L 540.062845 198.948077 
L 540.311475 195.954948 
L 540.515393 192.961819 
L 540.681868 189.96869 
L 540.817148 186.97556 
L 540.926568 183.982431 
L 541.014659 180.989302 
L 541.085247 177.996173 
L 541.141545 175.003044 
L 541.186235 172.009915 
L 541.221544 169.016786 
L 541.249308 166.023657 
L 541.271036 163.030528 
L 541.28796 160.037399 
L 541.30108 157.04427 
L 541.311201 154.051141 
L 541.318972 151.058012 
L 541.324909 148.064883 
L 541.329425 145.071754 
L 541.332842 142.078625 
L 541.335415 139.085496 
L 541.337344 136.092367 
L 541.338782 133.099238 
L 541.33985 130.106109 
L 541.340639 127.11298 
L 541.341218 124.119851 
L 541.341642 121.126722 
L 541.341951 118.133593 
L 541.342174 115.140464 
L 541.342335 112.147335 
L 541.342451 109.154206 
L 541.342533 106.161077 
L 541.342592 103.167948 
L 541.342633 100.174819 
L 541.342662 97.18169 
L 541.342682 94.188561 
L 541.342696 91.195432 
L 541.342706 88.202303 
L 541.342713 85.209174 
L 541.342718 82.216045 
L 541.342721 79.222916 
L 541.342723 76.229787 
L 541.342724 73.236658 
L 541.342725 70.243529 
L 541.342726 67.2504 
L 541.342726 64.257271 
L 541.342727 61.264142 
L 541.342727 58.271013 
L 541.342727 55.277884 
L 541.342727 52.284755 
L 541.342727 49.291626 
L 541.342727 46.298497 
L 541.342727 43.305368 
L 541.342727 40.312239 
" style="fill:none;stroke:#bbee91;stroke-linecap:round;stroke-width:1.75;"/>
   </g>
   <g id="line2d_66">
    <path clip-path="url(#p221931d06b)" d="M 64.197273 336.632011 
L 86.567278 333.638882 
L 108.50114 330.645753 
L 129.994186 327.652624 
L 151.038936 324.659495 
L 171.625415 321.666366 
L 191.741463 318.673237 
L 211.373064 315.680108 
L 230.504695 312.686979 
L 249.119683 309.69385 
L 267.200578 306.700721 
L 284.72954 303.707592 
L 301.688737 300.714463 
L 318.060742 297.721334 
L 333.828932 294.728205 
L 348.977881 291.735076 
L 363.493733 288.741947 
L 377.364561 285.748818 
L 390.580683 282.755689 
L 403.134955 279.76256 
L 415.02301 276.769431 
L 426.243448 273.776302 
L 436.797974 270.783173 
L 446.691471 267.790044 
L 455.932021 264.796915 
L 464.530855 261.803786 
L 472.502248 258.810657 
L 479.863358 255.817528 
L 486.634012 252.824399 
L 492.836448 249.83127 
L 498.495015 246.838141 
L 503.63585 243.845012 
L 508.286528 240.851883 
L 512.475707 237.858754 
L 516.232766 234.865625 
L 519.587451 231.872496 
L 522.569537 228.879367 
L 525.208511 225.886238 
L 527.533276 222.893109 
L 529.571902 219.89998 
L 531.351391 216.906851 
L 532.897502 213.913722 
L 534.234591 210.920593 
L 535.385511 207.927464 
L 536.371526 204.934335 
L 537.212278 201.941206 
L 537.92577 198.948077 
L 538.528384 195.954948 
L 539.034922 192.961819 
L 539.458663 189.96869 
L 539.81144 186.97556 
L 540.103722 183.982431 
L 540.344714 180.989302 
L 540.542456 177.996173 
L 540.703924 175.003044 
L 540.83513 172.009915 
L 540.941228 169.016786 
L 541.026603 166.023657 
L 541.094968 163.030528 
L 541.149444 160.037399 
L 541.19264 157.04427 
L 541.226723 154.051141 
L 541.253484 151.058012 
L 541.274392 148.064883 
L 541.290647 145.071754 
L 541.303222 142.078625 
L 541.312902 139.085496 
L 541.320316 136.092367 
L 541.325967 133.099238 
L 541.330253 130.106109 
L 541.333487 127.11298 
L 541.335915 124.119851 
L 541.337729 121.126722 
L 541.339078 118.133593 
L 541.340076 115.140464 
L 541.34081 112.147335 
L 541.341347 109.154206 
L 541.341739 106.161077 
L 541.342023 103.167948 
L 541.342228 100.174819 
L 541.342375 97.18169 
L 541.34248 94.188561 
L 541.342554 91.195432 
L 541.342607 88.202303 
L 541.342644 85.209174 
L 541.34267 82.216045 
L 541.342688 79.222916 
L 541.342701 76.229787 
L 541.342709 73.236658 
L 541.342715 70.243529 
L 541.342719 67.2504 
L 541.342722 64.257271 
L 541.342724 61.264142 
L 541.342725 58.271013 
L 541.342726 55.277884 
L 541.342726 52.284755 
L 541.342727 49.291626 
L 541.342727 46.298497 
L 541.342727 43.305368 
L 541.342727 40.312239 
" style="fill:none;stroke:#e2d176;stroke-linecap:round;stroke-width:1.75;"/>
   </g>
   <g id="line2d_67">
    <path clip-path="url(#p221931d06b)" d="M 64.197273 336.632011 
L 80.039256 333.638882 
L 95.879267 330.645753 
L 111.713365 327.652624 
L 127.534989 324.659495 
L 143.334973 321.666366 
L 159.101583 318.673237 
L 174.820563 315.680108 
L 190.475205 312.686979 
L 206.046458 309.69385 
L 221.513049 306.700721 
L 236.851657 303.707592 
L 252.037106 300.714463 
L 267.042603 297.721334 
L 281.840016 294.728205 
L 296.400179 291.735076 
L 310.693237 288.741947 
L 324.689018 285.748818 
L 338.357429 282.755689 
L 351.668873 279.76256 
L 364.594669 276.769431 
L 377.107484 273.776302 
L 389.181745 270.783173 
L 400.794044 267.790044 
L 411.923506 264.796915 
L 422.552125 261.803786 
L 432.665049 258.810657 
L 442.250815 255.817528 
L 451.301514 252.824399 
L 459.8129 249.83127 
L 467.784423 246.838141 
L 475.219192 243.845012 
L 482.123873 240.851883 
L 488.508518 237.858754 
L 494.386341 234.865625 
L 499.773435 231.872496 
L 504.688452 228.879367 
L 509.152243 225.886238 
L 513.187484 222.893109 
L 516.81828 219.89998 
L 520.069774 216.906851 
L 522.967762 213.913722 
L 525.538326 210.920593 
L 527.807484 207.927464 
L 529.800883 204.934335 
L 531.543518 201.941206 
L 533.059493 198.948077 
L 534.371821 195.954948 
L 535.50227 192.961819 
L 536.471242 189.96869 
L 537.297693 186.97556 
L 537.999089 183.982431 
L 538.591395 180.989302 
L 539.089088 177.996173 
L 539.505196 175.003044 
L 539.851355 172.009915 
L 540.137884 169.016786 
L 540.373868 166.023657 
L 540.56725 163.030528 
L 540.724925 160.037399 
L 540.852841 157.04427 
L 540.956094 154.051141 
L 541.039019 151.058012 
L 541.105284 148.064883 
L 541.157968 145.071754 
L 541.199645 142.078625 
L 541.232447 139.085496 
L 541.258135 136.092367 
L 541.278149 133.099238 
L 541.293664 130.106109 
L 541.30563 127.11298 
L 541.314813 124.119851 
L 541.321825 121.126722 
L 541.32715 118.133593 
L 541.331176 115.140464 
L 541.334202 112.147335 
L 541.336467 109.154206 
L 541.338152 106.161077 
L 541.3394 103.167948 
L 541.34032 100.174819 
L 541.340994 97.18169 
L 541.341485 94.188561 
L 541.341842 91.195432 
L 541.342099 88.202303 
L 541.342284 85.209174 
L 541.342416 82.216045 
L 541.34251 79.222916 
L 541.342577 76.229787 
L 541.342624 73.236658 
L 541.342656 70.243529 
L 541.342679 67.2504 
L 541.342695 64.257271 
L 541.342706 61.264142 
L 541.342713 58.271013 
L 541.342718 55.277884 
L 541.342722 52.284755 
L 541.342724 49.291626 
L 541.342726 46.298497 
L 541.342727 43.305368 
L 541.342727 40.312239 
" style="fill:none;stroke:#ffa95b;stroke-linecap:round;stroke-width:1.75;"/>
   </g>
   <g id="line2d_68">
    <path clip-path="url(#p221931d06b)" d="M 64.197273 336.632011 
L 74.773147 333.638882 
L 85.59903 330.645753 
L 96.67266 327.652624 
L 107.99013 324.659495 
L 119.545766 321.666366 
L 131.332 318.673237 
L 143.339255 315.680108 
L 155.555841 312.686979 
L 167.967865 309.69385 
L 180.559159 306.700721 
L 193.311229 303.707592 
L 206.203239 300.714463 
L 219.212014 297.721334 
L 232.312089 294.728205 
L 245.475792 291.735076 
L 258.673366 288.741947 
L 271.873146 285.748818 
L 285.041766 282.755689 
L 298.144427 279.76256 
L 311.145198 276.769431 
L 324.007368 273.776302 
L 336.693826 270.783173 
L 349.167483 267.790044 
L 361.391713 264.796915 
L 373.330812 261.803786 
L 384.950462 258.810657 
L 396.218193 255.817528 
L 407.103828 252.824399 
L 417.579896 249.83127 
L 427.622017 246.838141 
L 437.209227 243.845012 
L 446.324246 240.851883 
L 454.953685 237.858754 
L 463.088175 234.865625 
L 470.722421 231.872496 
L 477.855178 228.879367 
L 484.489153 225.886238 
L 490.630833 222.893109 
L 496.290248 219.89998 
L 501.480674 216.906851 
L 506.218287 213.913722 
L 510.521787 210.920593 
L 514.411982 207.927464 
L 517.911374 204.934335 
L 521.043729 201.941206 
L 523.833662 198.948077 
L 526.306239 195.954948 
L 528.486605 192.961819 
L 530.399644 189.96869 
L 532.06968 186.97556 
L 533.520218 183.982431 
L 534.77373 180.989302 
L 535.851481 177.996173 
L 536.773409 175.003044 
L 537.558029 172.009915 
L 538.222388 169.016786 
L 538.782052 166.023657 
L 539.251113 163.030528 
L 539.642231 160.037399 
L 539.966692 157.04427 
L 540.234479 154.051141 
L 540.454362 151.058012 
L 540.633988 148.064883 
L 540.779976 145.071754 
L 540.898018 142.078625 
L 540.992976 139.085496 
L 541.068973 136.092367 
L 541.129484 133.099238 
L 541.177417 130.106109 
L 541.215194 127.11298 
L 541.244812 124.119851 
L 541.267916 121.126722 
L 541.285846 118.133593 
L 541.299689 115.140464 
L 541.310322 112.147335 
L 541.318447 109.154206 
L 541.324625 106.161077 
L 541.329297 103.167948 
L 541.332813 100.174819 
L 541.335445 97.18169 
L 541.337405 94.188561 
L 541.338857 91.195432 
L 541.339928 88.202303 
L 541.340713 85.209174 
L 541.341286 82.216045 
L 541.341702 79.222916 
L 541.342002 76.229787 
L 541.342217 73.236658 
L 541.342371 70.243529 
L 541.342481 67.2504 
L 541.342558 64.257271 
L 541.342613 61.264142 
L 541.342651 58.271013 
L 541.342678 55.277884 
L 541.342696 52.284755 
L 541.342709 49.291626 
L 541.342717 46.298497 
L 541.342723 43.305368 
L 541.342727 40.312239 
" style="fill:none;stroke:#ff763d;stroke-linecap:round;stroke-width:1.75;"/>
   </g>
   <g id="line2d_69">
    <path clip-path="url(#p221931d06b)" d="M 64.197273 336.632011 
L 69.458029 333.638882 
L 75.133332 330.645753 
L 81.222472 327.652624 
L 87.724138 324.659495 
L 94.636282 321.666366 
L 101.955983 318.673237 
L 109.6793 315.680108 
L 117.801121 312.686979 
L 126.315009 309.69385 
L 135.213049 306.700721 
L 144.48569 303.707592 
L 154.121599 300.714463 
L 164.107513 297.721334 
L 174.428116 294.728205 
L 185.065912 291.735076 
L 196.001137 288.741947 
L 207.211679 285.748818 
L 218.673038 282.755689 
L 230.35831 279.76256 
L 242.238218 276.769431 
L 254.281179 273.776302 
L 266.453415 270.783173 
L 278.719118 267.790044 
L 291.040662 264.796915 
L 303.378864 261.803786 
L 315.693298 258.810657 
L 327.942655 255.817528 
L 340.085141 252.824399 
L 352.078924 249.83127 
L 363.882597 246.838141 
L 375.455672 243.845012 
L 386.759074 240.851883 
L 397.755643 237.858754 
L 408.410614 234.865625 
L 418.69207 231.872496 
L 428.571361 228.879367 
L 438.023465 225.886238 
L 447.027286 222.893109 
L 455.565889 219.89998 
L 463.626646 216.906851 
L 471.20131 213.913722 
L 478.285997 210.920593 
L 484.88109 207.927464 
L 490.991066 204.934335 
L 496.624242 201.941206 
L 501.792471 198.948077 
L 506.510774 195.954948 
L 510.796934 192.961819 
L 514.671065 189.96869 
L 518.15516 186.97556 
L 521.272639 183.982431 
L 524.047904 180.989302 
L 526.505917 177.996173 
L 528.671798 175.003044 
L 530.570469 172.009915 
L 532.22633 169.016786 
L 533.662986 166.023657 
L 534.903018 163.030528 
L 535.967802 160.037399 
L 536.877374 157.04427 
L 537.650334 154.051141 
L 538.303796 151.058012 
L 538.853373 148.064883 
L 539.313182 145.071754 
L 539.695894 142.078625 
L 540.012783 139.085496 
L 540.273811 136.092367 
L 540.487712 133.099238 
L 540.662085 130.106109 
L 540.803499 127.11298 
L 540.91759 124.119851 
L 541.009161 121.126722 
L 541.082276 118.133593 
L 541.140354 115.140464 
L 541.186248 112.147335 
L 541.222326 109.154206 
L 541.250542 106.161077 
L 541.272495 103.167948 
L 541.289486 100.174819 
L 541.302569 97.18169 
L 541.312591 94.188561 
L 541.320228 91.195432 
L 541.326018 88.202303 
L 541.330385 85.209174 
L 541.333661 82.216045 
L 541.336106 79.222916 
L 541.337922 76.229787 
L 541.339263 73.236658 
L 541.340248 70.243529 
L 541.340969 67.2504 
L 541.341492 64.257271 
L 541.341871 61.264142 
L 541.342144 58.271013 
L 541.342339 55.277884 
L 541.342478 52.284755 
L 541.342576 49.291626 
L 541.342645 46.298497 
L 541.342694 43.305368 
L 541.342727 40.312239 
" style="fill:none;stroke:#ff3b1e;stroke-linecap:round;stroke-width:1.75;"/>
   </g>
   <g id="line2d_70">
    <path clip-path="url(#p221931d06b)" d="M 64.197273 336.632011 
L 64.722544 333.638882 
L 65.721967 330.645753 
L 67.195518 327.652624 
L 69.143127 324.659495 
L 71.564639 321.666366 
L 74.459768 318.673237 
L 77.828033 315.680108 
L 81.668681 312.686979 
L 85.980606 309.69385 
L 90.762244 306.700721 
L 96.011473 303.707592 
L 101.725487 300.714463 
L 107.900669 297.721334 
L 114.532453 294.728205 
L 121.615182 291.735076 
L 129.141951 288.741947 
L 137.104457 285.748818 
L 145.492839 282.755689 
L 154.295529 279.76256 
L 163.499096 276.769431 
L 173.088106 273.776302 
L 183.044996 270.783173 
L 193.349953 267.790044 
L 203.980831 264.796915 
L 214.913078 261.803786 
L 226.119708 258.810657 
L 237.571296 255.817528 
L 249.236026 252.824399 
L 261.079772 249.83127 
L 273.066237 246.838141 
L 285.157138 243.845012 
L 297.312439 240.851883 
L 309.490648 237.858754 
L 321.649151 234.865625 
L 333.744604 231.872496 
L 345.733361 228.879367 
L 357.571939 225.886238 
L 369.217513 222.893109 
L 380.628423 219.89998 
L 391.764691 216.906851 
L 402.588525 213.913722 
L 413.064807 210.920593 
L 423.161545 207.927464 
L 432.850281 204.934335 
L 442.106437 201.941206 
L 450.909593 198.948077 
L 459.243692 195.954948 
L 467.097155 192.961819 
L 474.462918 189.96869 
L 481.33838 186.97556 
L 487.725259 183.982431 
L 493.629386 180.989302 
L 499.060412 177.996173 
L 504.031464 175.003044 
L 508.55875 172.009915 
L 512.661127 169.016786 
L 516.359644 166.023657 
L 519.677076 163.030528 
L 522.637463 160.037399 
L 525.265663 157.04427 
L 527.586922 154.051141 
L 529.626492 151.058012 
L 531.409271 148.064883 
L 532.959503 145.071754 
L 534.300513 142.078625 
L 535.454502 139.085496 
L 536.442381 136.092367 
L 537.283654 133.099238 
L 537.996343 130.106109 
L 538.596955 127.11298 
L 539.100476 124.119851 
L 539.520401 121.126722 
L 539.868783 118.133593 
L 540.156306 115.140464 
L 540.392365 112.147335 
L 540.585163 109.154206 
L 540.741808 106.161077 
L 540.868417 103.167948 
L 540.970218 100.174819 
L 541.051645 97.18169 
L 541.116438 94.188561 
L 541.167726 91.195432 
L 541.208113 88.202303 
L 541.23975 85.209174 
L 541.264405 82.216045 
L 541.283517 79.222916 
L 541.298257 76.229787 
L 541.309564 73.236658 
L 541.318193 70.243529 
L 541.324743 67.2504 
L 541.329689 64.257271 
L 541.333405 61.264142 
L 541.33618 58.271013 
L 541.338243 55.277884 
L 541.339767 52.284755 
L 541.340886 49.291626 
L 541.341705 46.298497 
L 541.342299 43.305368 
L 541.342727 40.312239 
" style="fill:none;stroke:#ff0000;stroke-linecap:round;stroke-width:1.75;"/>
   </g>
  </g>
 </g>
 <defs>
  <clipPath id="p221931d06b">
   <rect height="325.95175" width="524.86" x="40.34" y="25.49625"/>
  </clipPath>
 </defs>
</svg>
